STARTFONT 2.3
FONT -FontForge-Butcherman-Book-R-Normal--16-160-72-72-P-86-ISO10646-1
SIZE 16 72 72  4
FONTBOUNDINGBOX 25 32 -2 -11
COMMENT "Generated by fontforge, http://fontforge.sourceforge.net"
COMMENT "Copyright (c) 2011, Typomondo, with Reserved Font Name  "Butcherman"."
STARTPROPERTIES 41
FOUNDRY "FontForge"
FAMILY_NAME "Butcherman"
WEIGHT_NAME "Book"
SLANT "R"
SETWIDTH_NAME "Normal"
ADD_STYLE_NAME ""
PIXEL_SIZE 16
POINT_SIZE 160
RESOLUTION_X 72
RESOLUTION_Y 72
SPACING "P"
AVERAGE_WIDTH 86
CHARSET_REGISTRY "ISO10646"
CHARSET_ENCODING "1"
FONTNAME_REGISTRY ""
CHARSET_COLLECTIONS "ISO8859-2 ISO8859-9 ISO8859-4 ISO10646-1"
BITS_PER_PIXEL 4
FONT_NAME "Butcherman-Regular"
FACE_NAME "Butcherman Regular"
COPYRIGHT "Copyright (c) 2011, Typomondo, with Reserved Font Name  "Butcherman"."
FONT_VERSION "001.004"
FONT_ASCENT 13
FONT_DESCENT 3
UNDERLINE_POSITION -2
UNDERLINE_THICKNESS 1
X_HEIGHT 11
CAP_HEIGHT 11
DEFAULT_CHAR 3
RAW_ASCENT 799
RAW_DESCENT 200
NORM_SPACE 3
RELATIVE_WEIGHT 40
RELATIVE_SETWIDTH 50
SUPERSCRIPT_X 0
SUPERSCRIPT_Y 5
SUPERSCRIPT_SIZE 9
SUBSCRIPT_X 0
SUBSCRIPT_Y 1
SUBSCRIPT_SIZE 9
AVG_LOWERCASE_WIDTH 94
AVG_UPPERCASE_WIDTH 88
ENDPROPERTIES
CHARS 331
STARTCHAR NULL.dup1
ENCODING 0
SWIDTH 161 0
DWIDTH 3 0
BBX 1 1 0 0
BITMAP
00
ENDCHAR
STARTCHAR CR
ENCODING 13
SWIDTH 161 0
DWIDTH 3 0
BBX 1 1 0 0
BITMAP
00
ENDCHAR
STARTCHAR space
ENCODING 32
SWIDTH 161 0
DWIDTH 3 0
BBX 1 1 0 0
BITMAP
00
ENDCHAR
STARTCHAR exclam
ENCODING 33
SWIDTH 350 0
DWIDTH 6 0
BBX 5 20 0 0
BITMAP
279840
8FFFF0
4FFFA0
0EFF80
1FFF60
1FFF40
0BFF10
07FF20
06FF10
04FD00
04FE00
04FD00
017800
000000
378A80
3FFFC0
0EFFE0
0DFFE0
0DFFD0
042010
ENDCHAR
STARTCHAR quotedbl
ENCODING 34
SWIDTH 541 0
DWIDTH 9 0
BBX 8 6 0 6
BITMAP
2BB93BC8
2FFC1FFB
0DFB0CF9
0BF809F7
08F706F4
04D405D1
ENDCHAR
STARTCHAR numbersign
ENCODING 35
SWIDTH 583 0
DWIDTH 9 0
BBX 9 15 0 -2
BITMAP
0000600440
0004C00C80
0009902F40
023C725F20
09FFFFFFD0
0AFFFFFF90
05CDABFA50
00D507E000
02F209A000
6AF66DB500
DFFFFFF500
5DA89D9200
1E10790000
6C00B50000
1300620000
ENDCHAR
STARTCHAR dollar
ENCODING 36
SWIDTH 534 0
DWIDTH 9 0
BBX 8 21 0 -5
BITMAP
00017000
0004D000
0005D000
0004D000
0029FA20
05FFFFF6
0DFFFFFE
4FFFFFFE
6FFFFFFC
5FFD7FFB
3FFE5756
0CFFFE50
017DFFE0
05653FF3
0BFE9FE1
04FFFF70
0056D510
0004B000
0006B000
0005B000
00012000
ENDCHAR
STARTCHAR percent
ENCODING 37
SWIDTH 828 0
DWIDTH 13 0
BBX 13 15 0 -2
BITMAP
00000001710000
03630008E00000
4FFF600DA00000
7FFFA00F600000
6F9FA02F400000
6F2F907D03CA00
4F4F50C80BFF70
1DEE13F30BFF90
005209E00ADF90
00000EA00E9FA0
00000D400FAF60
00002D0004CA00
00008A00000000
0000A700000000
00002200000000
ENDCHAR
STARTCHAR ampersand
ENCODING 38
SWIDTH 522 0
DWIDTH 8 0
BBX 8 9 0 2
BITMAP
00010000
002FF700
001FF700
277FF965
5FFFFFFA
5FFFFFF9
157FFA63
001FF700
001EE400
ENDCHAR
STARTCHAR quotesingle
ENCODING 39
SWIDTH 300 0
DWIDTH 5 0
BBX 4 6 0 6
BITMAP
2AB9
1FFD
0DFC
0BFA
08F8
05D6
ENDCHAR
STARTCHAR parenleft
ENCODING 40
SWIDTH 372 0
DWIDTH 6 0
BBX 6 16 0 -2
BITMAP
000046
001CF9
00BFF7
04FFF5
0CFFF4
1FFFE2
3FFD00
5FF800
6FF700
5FF600
4FF700
1FFA00
0BFF30
04FFE0
00BFF2
0018C1
ENDCHAR
STARTCHAR parenright
ENCODING 41
SWIDTH 338 0
DWIDTH 5 0
BBX 5 17 0 -3
BITMAP
220000
8FE300
6FFE20
5FFF80
4FFF90
4FFF90
15EF90
00BF80
009F80
009F70
00AF50
00CF30
01FF10
15FA00
7FE200
9F4000
010000
ENDCHAR
STARTCHAR asterisk
ENCODING 42
SWIDTH 513 0
DWIDTH 8 0
BBX 8 10 0 3
BITMAP
00100800
01D52F40
00EC9E10
009FFB00
7CCFFDC8
6EFFFFE8
003FF900
007FBE10
00DB4F40
00130100
ENDCHAR
STARTCHAR plus
ENCODING 43
SWIDTH 458 0
DWIDTH 7 0
BBX 7 8 0 2
BITMAP
00131000
006FC000
138FB220
4FFFFF80
4FFFFF80
038FC210
007FB000
00242000
ENDCHAR
STARTCHAR comma
ENCODING 44
SWIDTH 361 0
DWIDTH 6 0
BBX 5 9 0 -3
BITMAP
166440
2FFFD0
3FFFE0
3FFFE0
4FFFE0
034DD0
000DB0
001F90
000520
ENDCHAR
STARTCHAR hyphen
ENCODING 45
SWIDTH 478 0
DWIDTH 8 0
BBX 7 4 0 4
BITMAP
0BB9A970
1FFFFF70
2FFFFF60
02544420
ENDCHAR
STARTCHAR period
ENCODING 46
SWIDTH 374 0
DWIDTH 6 0
BBX 6 6 0 0
BITMAP
167981
0FFFF2
0EFFF2
0CFFF2
0CFFF1
032010
ENDCHAR
STARTCHAR slash
ENCODING 47
SWIDTH 291 0
DWIDTH 5 0
BBX 6 15 -1 -2
BITMAP
000044
0000C7
0003F4
0005E0
0009C0
000D70
005F20
009D00
00D900
01F400
01E100
06A000
0C6000
1F2000
040000
ENDCHAR
STARTCHAR zero
ENCODING 48
SWIDTH 528 0
DWIDTH 8 0
BBX 8 13 0 -1
BITMAP
007BB910
08FFFFC0
2FFFFFF8
4FFFFFF8
3FFFFFFA
2FFAAFF9
1FF45FF9
1FF43FF8
0EF44FF6
0CF77FE1
09FDCFB0
05CFFF50
0006F600
ENDCHAR
STARTCHAR one
ENCODING 49
SWIDTH 366 0
DWIDTH 6 0
BBX 6 13 0 -1
BITMAP
003AB0
8DFFE0
BEFFE1
04FFF1
02FFF0
01FFC0
00FFA0
00DFB0
00CF80
00BF90
00AF80
007C70
000020
ENDCHAR
STARTCHAR two
ENCODING 50
SWIDTH 575 0
DWIDTH 9 0
BBX 9 14 0 -2
BITMAP
007DDA2000
09FFFFE300
2FFFFFFA00
2FFFFFFE00
2FFFFFFD00
1FFD9FFB00
0EF85FF900
0111CFF500
0001EFD000
0009FF7130
08BFFFFFD0
1FFFFFEFA0
3FEAA47A60
0010001400
ENDCHAR
STARTCHAR three
ENCODING 51
SWIDTH 517 0
DWIDTH 8 0
BBX 8 13 0 -1
BITMAP
018BB600
1DFFFF60
6FFFFFF2
5FFFFFF6
3FFFFFF7
2FFBBFF7
1B83AFF4
0008EFE1
0007CFF2
00231EF6
01EF7DF3
008FFFB0
002C9830
ENDCHAR
STARTCHAR four
ENCODING 52
SWIDTH 466 0
DWIDTH 7 0
BBX 8 16 0 -4
BITMAP
0BCCCC80
06FFF600
09FFD000
0AFFA000
0CFF5000
0DFF3000
0AFE2300
0CFBDF70
0EF8BF20
1FFACF31
3FFFFFE0
6FFFFFE0
2214BE90
00007B00
00006B00
00002500
ENDCHAR
STARTCHAR five
ENCODING 53
SWIDTH 583 0
DWIDTH 9 0
BBX 9 13 0 -1
BITMAP
2DDEDBA980
2FFFFFFFC0
1FFFFFFFA0
3FFFFFFF80
1FFFFFFF60
1FFCBDEF40
2FF8000000
0EFEDED000
06ABCFF100
00231DF400
00EF8DF100
008FFFA000
001CA83000
ENDCHAR
STARTCHAR six
ENCODING 54
SWIDTH 582 0
DWIDTH 9 0
BBX 9 14 0 -2
BITMAP
018AA95000
1BFFFFFA00
4FFFFFFF60
5FFFFFFFB0
4FFFFFFF80
2FFE8FFF50
0EFC0CFE00
0CFB457900
07FFFFEA00
05FF15FF00
03FF57FE00
00DFFFFE00
004DEFEA00
0001211000
ENDCHAR
STARTCHAR seven
ENCODING 55
SWIDTH 624 0
DWIDTH 10 0
BBX 10 14 0 -2
BITMAP
489ABDEEDA
8FFFFFFFF9
6FFFFFFFF3
3FFFFFFFF0
1FFFFFFF90
0EEDCBFF50
000006FF20
00000BFB00
00002FF400
00007FB000
0000CF5000
0003FD0000
0008F80000
0005720000
ENDCHAR
STARTCHAR eight
ENCODING 56
SWIDTH 459 0
DWIDTH 7 0
BBX 7 14 0 -2
BITMAP
06CDC810
4FFFFF90
6FFFFFA0
4FFFFF90
2FFFFF70
0EF5DF40
0BF4CF10
06FFFB00
04FFF900
07F1EB00
06F3EA00
03FFF800
00688100
00010000
ENDCHAR
STARTCHAR nine
ENCODING 57
SWIDTH 584 0
DWIDTH 9 0
BBX 9 15 0 -3
BITMAP
0028BC7000
02EFFFFC10
0CFFFFFF50
3FFFFFFF70
5FFFFFFF90
5FFF6EFFA0
2FFF5BFF90
0AFFFFFF60
018B9DFF10
04891AFB00
0AFF7FF500
04FFFFB000
0055765000
0000400000
0000100000
ENDCHAR
STARTCHAR colon
ENCODING 58
SWIDTH 386 0
DWIDTH 6 0
BBX 6 14 0 0
BITMAP
156971
1FFFF2
0CFFF2
0DFFF3
0BFFF3
044120
000000
000000
179A91
1FFFF0
0FFFF2
0DFFF2
0AFFF1
033010
ENDCHAR
STARTCHAR semicolon
ENCODING 59
SWIDTH 375 0
DWIDTH 6 0
BBX 6 17 0 -3
BITMAP
157A70
3FFFF1
0DFFF0
0EFFF1
0DFFF1
063110
000000
000000
175460
1FFFF0
0EFFF1
1FFFF0
2FFFF0
034CE0
000DC0
000FB0
000540
ENDCHAR
STARTCHAR less
ENCODING 60
SWIDTH 459 0
DWIDTH 7 0
BBX 7 9 0 1
BITMAP
006CCB80
00AFFD20
04FFF300
3EFF9000
6FFF2000
0EFF8000
03EFE300
005FFE30
0005ADA0
ENDCHAR
STARTCHAR equal
ENCODING 61
SWIDTH 485 0
DWIDTH 8 0
BBX 6 6 1 4
BITMAP
ABAA97
FFFFF9
233322
877875
FFFFF9
254442
ENDCHAR
STARTCHAR greater
ENCODING 62
SWIDTH 432 0
DWIDTH 7 0
BBX 7 9 0 1
BITMAP
4CCD5000
0BFFA000
01EFF400
005FFE20
001DFF50
005FFE10
02EFF200
3EFF8000
3AA90000
ENDCHAR
STARTCHAR question
ENCODING 63
SWIDTH 577 0
DWIDTH 9 0
BBX 8 15 0 -2
BITMAP
00277500
05FFFFA1
1EFFFFFA
2FFFFFFE
2FFFFFFF
0EFC6FFE
04444FFB
0000AFF3
0000EFA0
0001FD10
00015200
00156400
001FFC00
000CFC00
00089700
ENDCHAR
STARTCHAR at
ENCODING 64
SWIDTH 930 0
DWIDTH 15 0
BBX 15 18 0 -4
BITMAP
000017AA83000000
0002DFFFFF700000
001DE8544AF80000
00AC27AAA49F6000
03E18FFFFE3DF200
0A90EFFFFF48FA00
1F50DFFFFF14FF10
4F30AFE9FE03FF40
6F206F91FC01FF60
4F303779FB00EF50
4F506FB7FE10BF30
3F905F83FF90AE00
0EE06FFFFDFEE900
09F51BBBA2BD8100
02EE100000000000
004FD52244000000
0004DFFFFE100000
0000057751000000
ENDCHAR
STARTCHAR A
ENCODING 65
SWIDTH 494 0
DWIDTH 8 0
BBX 8 16 0 -4
BITMAP
37888751
09FFFFB1
05FFFF40
04FFFF20
05FFFF10
04FFFE00
04FCEE00
05F8DE00
05F6CE00
05FFFE00
06FFFC00
03F9E900
03E2C700
01613500
00004100
00001000
ENDCHAR
STARTCHAR B
ENCODING 66
SWIDTH 517 0
DWIDTH 8 0
BBX 8 13 0 -1
BITMAP
37ACDC81
2EFFFFF9
07FFFFFB
05FFFFF9
04FFFFF7
03FF4DF4
02FF4CF1
02FFFFB0
01FFFF90
00EF1EC0
00CF3EB0
00CFFF80
00347810
ENDCHAR
STARTCHAR C
ENCODING 67
SWIDTH 504 0
DWIDTH 8 0
BBX 8 14 0 -2
BITMAP
007CDB30
0AFFFFE2
4FFFFFF9
8FFFFFFA
7FFFFFFA
6FFD9FF9
3FFA1FF7
1FF90101
0DF80200
0BFA3FE1
07FEBFC0
03FFFF40
0027B700
00036100
ENDCHAR
STARTCHAR D
ENCODING 68
SWIDTH 522 0
DWIDTH 8 0
BBX 9 15 0 -3
BITMAP
14689A5000
4FFFFFF600
0EFFFFFE00
09FFFFFF10
07FFFFFE00
06FFABFD00
04FF34FA00
03FF23F700
01FF35F400
00EF48F200
00BFEFF100
00CAEFA000
0080A91000
0030620000
0000100000
ENDCHAR
STARTCHAR E
ENCODING 69
SWIDTH 570 0
DWIDTH 9 0
BBX 9 13 0 -1
BITMAP
39ABBB9730
1EFFFFFF20
08FFFFFD00
07FFFFF900
07FFFFF500
05FF77B200
04FF741000
02FFFF4000
01FFDD3000
00EF200000
00CFFF8000
0099FD5000
0034723000
ENDCHAR
STARTCHAR F
ENCODING 70
SWIDTH 559 0
DWIDTH 9 0
BBX 9 14 0 -2
BITMAP
499A998610
1DFFFFFD00
04FFFFF900
01FFFFF700
01FFFFF500
00EFDBE400
00BFC55100
00BFFFD000
00AFECB000
008FB00000
00AFC00000
00BFD00000
0058600000
0001000000
ENDCHAR
STARTCHAR G
ENCODING 71
SWIDTH 499 0
DWIDTH 8 0
BBX 8 14 0 -2
BITMAP
016AA500
1DFFFFC1
5FFFFFF6
6FFFFFFA
5FFFFFF8
3FF9CFF6
1FF45FF4
0EF33562
0CF5CFF4
0AF77EF4
07FC7FF2
02FFFFE0
0077BC30
00220100
ENDCHAR
STARTCHAR H
ENCODING 72
SWIDTH 726 0
DWIDTH 12 0
BBX 12 15 0 -3
BITMAP
1259B36AA961
2EFFD05FFFB0
09FFD03FFF30
07FFC06FFD00
04FFC07FFA00
01FFB07FF600
00DFC6BFF300
00BFFFFFE000
009FE9EFD000
008FC0CFA000
006FD0DF8000
006FD1EF6000
004420AA4000
000000010000
000002200000
ENDCHAR
STARTCHAR I
ENCODING 73
SWIDTH 401 0
DWIDTH 6 0
BBX 6 13 0 -1
BITMAP
6DCCCA
2DFFF7
05FFF2
02FFF3
03FFF1
03FFD0
02FFC0
00FFC0
00EF90
00CFA0
00AF90
007B90
003430
ENDCHAR
STARTCHAR J
ENCODING 74
SWIDTH 455 0
DWIDTH 7 0
BBX 8 13 -1 -1
BITMAP
0005AA95
0003FFF4
0000EFF1
0000DFB0
0000FF90
0001FF80
0001FF50
0010FF30
3BB1FF10
2FD2FE00
1FFCFB00
08ECE600
00233100
ENDCHAR
STARTCHAR K
ENCODING 75
SWIDTH 580 0
DWIDTH 9 0
BBX 9 13 0 -1
BITMAP
5BB945A740
1DFF69FE30
07FF7CE300
01FF9FA000
00DFFF7000
00CFFF7000
00AFFF8000
008FFF8000
006FFF9000
005FCFC000
003F5AF100
002F77F300
0003324200
ENDCHAR
STARTCHAR L
ENCODING 76
SWIDTH 416 0
DWIDTH 7 0
BBX 8 14 0 -2
BITMAP
7CCBB500
0EFF9000
0DFF5000
0AFF6000
0AFF4000
08FF3000
05FF5000
05FF5000
02FF4000
01FF8221
00EFFFF0
00BFEFC0
00357890
00000010
ENDCHAR
STARTCHAR M
ENCODING 77
SWIDTH 740 0
DWIDTH 12 0
BBX 12 14 0 -1
BITMAP
000010101000
49BDF29DEA72
1EFFF59FFF80
08FFF9DFFF40
07FFFEFFFF10
03FFFFFFFE00
02FFFFFFFD00
01FFFFFFFE00
00DFBFFCFD00
00AF9ED9FC00
008FADC9F900
006FBA8AF700
005B7558B600
001400002100
ENDCHAR
STARTCHAR N
ENCODING 78
SWIDTH 610 0
DWIDTH 10 0
BBX 10 15 0 -3
BITMAP
289A67A861
4DFF95FFB0
09FFE4FF30
08FFF8FF20
07FFFEFF00
05FFFFFD00
03FFFFFB00
01FFFFF900
00CFBFF800
00BF7FF800
00AF4EF700
008F4BF400
007A48C300
0050333000
0020210000
ENDCHAR
STARTCHAR O
ENCODING 79
SWIDTH 504 0
DWIDTH 8 0
BBX 8 14 0 -2
BITMAP
006BA710
0AFFFFD2
5FFFFFF8
8FFFFFF9
6FFFFFF8
4FFAAFF9
2FF55FF9
0FF43FF8
0DF63FF3
0AF86FF1
08FECFB0
03EFFF50
00298810
00013000
ENDCHAR
STARTCHAR P
ENCODING 80
SWIDTH 545 0
DWIDTH 9 0
BBX 9 13 0 -1
BITMAP
48AACBA400
1CFFFFFE10
05FFFFFF40
03FFFFFF20
02FFFFFF00
00EFC3FE00
00CFC0ED00
009FD5FB00
007FFFF600
006FE66000
005FD00000
003FD00000
0006900000
ENDCHAR
STARTCHAR Q
ENCODING 81
SWIDTH 520 0
DWIDTH 8 0
BBX 9 15 0 -3
BITMAP
0029B81000
08FFFFD200
2FFFFFFA00
8FFFFFFD00
9FFFFFFE00
7FFF2DFD00
3FFF0BFC00
0EFD0AFC00
0CFE0AFA00
08FF4EF900
01EFEFF300
003EFFF910
0004AAFB00
0000009100
0000001000
ENDCHAR
STARTCHAR R
ENCODING 82
SWIDTH 599 0
DWIDTH 10 0
BBX 10 13 0 -1
BITMAP
268CCBA400
3EFFFFFFA0
06FFFFFFF3
00EFFFFFF3
00DFFFFFF3
00DFD1BFF1
00AFE0AFE0
007FFDFF90
004FFFFE30
002FF6FE10
001FF2FF30
000EF1EF30
0005627A50
ENDCHAR
STARTCHAR S
ENCODING 83
SWIDTH 504 0
DWIDTH 8 0
BBX 8 14 0 -2
BITMAP
0038C920
08FFFFE3
1FFFFFFB
7FFFFFF9
8FFFFFF9
9FFB9FF8
6FFC5555
1DFFFD30
019EFFE0
05746FF1
1EFCAFD0
07FFFF50
00768600
00001000
ENDCHAR
STARTCHAR T
ENCODING 84
SWIDTH 622 0
DWIDTH 10 0
BBX 10 14 0 -2
BITMAP
279ABBA741
1EFFFFFFF3
0AFFFFFFA0
06FFFFFFB0
05FFFFFF80
04FDFFCC60
0001FF7010
0000FF8000
0001FF6000
0000FF5000
0000DF5000
0000DF6000
0000DE5000
0000731000
ENDCHAR
STARTCHAR U
ENCODING 85
SWIDTH 637 0
DWIDTH 10 0
BBX 10 13 0 -1
BITMAP
49CC61A862
0CFF72FFF5
0AFF62FFE0
08FF92FFA0
05FF93FF70
03FF83FF30
02FF55FF10
02FF66FF00
01FF87FD00
00DFA9FB00
00AFFFF800
004E8BA200
0004024000
ENDCHAR
STARTCHAR V
ENCODING 86
SWIDTH 570 0
DWIDTH 9 0
BBX 9 14 0 -2
BITMAP
5ABB06CB90
0CFD0AFF50
07FE0DFD00
05FE0FF800
04FF4FF400
03FF6FF100
02FF9FD000
00FFBFA000
00DFEF6000
00AFFF2000
007FFE0000
005FFA0000
001ED70000
0000210000
ENDCHAR
STARTCHAR W
ENCODING 87
SWIDTH 777 0
DWIDTH 12 0
BBX 13 14 0 -1
BITMAP
00000010000000
015936F26B8300
6FFF69F49FFA20
05FF8CF8DFC000
00BFAFFDFF3000
008FEFFFFB0000
003FFFFFF60000
000AFFFFF40000
0006FFFFF20000
0002FFCFE00000
0000EF8FA00000
0000AC6F500000
00004A6E200000
00000100000000
ENDCHAR
STARTCHAR X
ENCODING 88
SWIDTH 587 0
DWIDTH 9 0
BBX 10 13 0 -1
BITMAP
36AA469630
1AFF7AFFA2
00CFCEF600
004FFFD000
000DFF9000
000BFF7000
000AFF3000
0007FF1000
0008FF1000
000AFF3000
000DCF7000
001F7EC000
0049247000
ENDCHAR
STARTCHAR Y
ENCODING 89
SWIDTH 688 0
DWIDTH 11 0
BBX 12 13 0 -1
BITMAP
48BC802B6400
06EFF35FFF91
003FFABFF700
0005FFFF9000
0000DFFF2000
00007FFF0000
00002FFD0000
00000CFC0000
000009FB0000
000006FA0000
000005F90000
000004F80000
000002620000
ENDCHAR
STARTCHAR Z
ENCODING 90
SWIDTH 695 0
DWIDTH 11 0
BBX 11 13 0 -1
BITMAP
16ACCCCA7400
3FFFFFFFFFA0
0BFFFFFFFE10
05FFFFFFF800
01FFFFFFF200
00EB7FFF7000
00307FF60000
0000DF900000
0002FE100000
0008F9300000
002FFFF90000
004EEFF30000
000212500000
ENDCHAR
STARTCHAR bracketleft
ENCODING 91
SWIDTH 410 0
DWIDTH 7 0
BBX 7 15 0 -1
BITMAP
0ABAA800
0DFFFF00
0DFFFF00
0DFB7700
0EF70000
0EF70000
0FF70000
0FF70000
2FF70000
1FF80000
1FF80000
0DF80000
0BFDBB30
09FCFC00
03214100
ENDCHAR
STARTCHAR backslash
ENCODING 92
SWIDTH 292 0
DWIDTH 5 0
BBX 5 15 0 -2
BITMAP
620000
B80000
8E0000
4F1000
1F4000
0B9000
07F100
02F500
00D900
009C00
004C00
000E20
000A70
0006B0
000220
ENDCHAR
STARTCHAR bracketright
ENCODING 93
SWIDTH 407 0
DWIDTH 7 0
BBX 6 15 0 -1
BITMAP
3BBBA3
8FFFF4
8FFFF4
378FF4
000EF6
000DF6
000DF7
000CF7
000CF9
000CF9
000DF7
000DF7
9BBFF7
9FFFF7
023243
ENDCHAR
STARTCHAR asciicircum
ENCODING 94
SWIDTH 523 0
DWIDTH 8 0
BBX 8 6 0 11
BITMAP
008EEC00
00EFFF40
06FECFC0
0DF82FF5
4FD108F9
06300070
ENDCHAR
STARTCHAR underscore
ENCODING 95
SWIDTH 452 0
DWIDTH 7 0
BBX 7 4 0 -1
BITMAP
01100000
4FFEFE60
4FFFFF50
15664520
ENDCHAR
STARTCHAR grave
ENCODING 96
SWIDTH 444 0
DWIDTH 7 0
BBX 6 4 0 12
BITMAP
00D500
06FF70
18DFFA
00026A
ENDCHAR
STARTCHAR a
ENCODING 97
SWIDTH 479 0
DWIDTH 8 0
BBX 8 14 0 -2
BITMAP
5BCDEDE6
1CFFFFB0
05FFFF80
03FFFF70
05FFFF60
04FFFF50
03FEDF50
05FBBF60
06F99F70
06FBCF60
07FFFF40
06FAAF30
06F46F20
01500100
ENDCHAR
STARTCHAR b
ENCODING 98
SWIDTH 610 0
DWIDTH 10 0
BBX 10 14 0 -2
BITMAP
1478AABA40
4FFFFFFFE0
08FFFFFFF4
01EFFFFFF5
00EFFFFFF5
00BFE6CFF1
009FF0AFB0
008FFCDF40
007FFFFC00
004FE4DF50
002FF0BF40
001FFBEF10
000A9AF900
0000001100
ENDCHAR
STARTCHAR c
ENCODING 99
SWIDTH 534 0
DWIDTH 9 0
BBX 9 13 0 -1
BITMAP
006BEC6000
09FFFFF800
5FFFFFFF20
8FFFFFFF10
8FFFFFFF20
5FFF8EFF10
1FFE0AFE00
0EFE024500
0CFD000000
08FF0CD200
04FF8FF100
00DFFFA000
00377B0000
ENDCHAR
STARTCHAR d
ENCODING 100
SWIDTH 573 0
DWIDTH 9 0
BBX 9 14 0 -2
BITMAP
268ACA7100
2FFFFFFC10
0DFFFFFFA0
08FFFFFFE0
04FFFFFFE0
01FFFDFFC0
00CFD0DF80
009FC0AF40
007FB0BF10
005FB0DB00
004FD3F900
003FFFF500
002D9FE100
0005062000
ENDCHAR
STARTCHAR e
ENCODING 101
SWIDTH 632 0
DWIDTH 10 0
BBX 10 13 0 -1
BITMAP
158ABBA973
5FFFFFFFF3
0AFFFFFFA0
07FFFFFF50
04FFFFFF40
01FFE9AE10
00EFE00000
00BFFEE300
009FFFF300
007FE45100
005FE98400
002FFFF500
0006476400
ENDCHAR
STARTCHAR f
ENCODING 102
SWIDTH 559 0
DWIDTH 9 0
BBX 9 14 0 -2
BITMAP
49AB999610
1CFFFFFD00
03FFFFF900
01FFFFF600
01FFFFF500
00EFDBE400
00CFB64100
00CFFF9000
00AFEB9000
008FB00000
00BFB00000
00CFC00000
0068600000
0002200000
ENDCHAR
STARTCHAR g
ENCODING 103
SWIDTH 546 0
DWIDTH 9 0
BBX 9 14 0 -2
BITMAP
018AA94000
1CFFFFF800
6FFFFFFF20
7FFFFFFF60
6FFFFFFF60
4FFD9FFF30
1FFA0DFF10
0DF9147900
09FB5EB800
06FE4EFC00
04FF48FB00
00EFFFFA00
006DEEE500
0001211000
ENDCHAR
STARTCHAR h
ENCODING 104
SWIDTH 730 0
DWIDTH 12 0
BBX 12 13 0 -1
BITMAP
257BD35DDB91
1CFFE02FFFB0
08FFE02FFF40
06FFD05FFE00
03FFD04FFB00
01FFC04FF800
00CFD8BFF300
00AFFFFFF000
008FE7CFF000
008FE0CFB000
006FE0CF9000
005FE0DF7000
003300785000
ENDCHAR
STARTCHAR i
ENCODING 105
SWIDTH 412 0
DWIDTH 7 0
BBX 7 13 0 -1
BITMAP
4ACCB810
1DFFF900
03FFF400
01FFF200
01FFE000
02FFC000
01FFB000
00DFC000
00BF9000
009F8000
008F7000
007D6000
00123000
ENDCHAR
STARTCHAR j
ENCODING 106
SWIDTH 458 0
DWIDTH 7 0
BBX 8 13 -1 -1
BITMAP
000ACA74
0008FFF7
0004FFF4
0001FFE0
0000FFE0
0000FFD0
0000FFC0
0010DFA0
2BD0DF90
1FF3DF80
0CFDFF40
04EFFF00
00026400
ENDCHAR
STARTCHAR k
ENCODING 107
SWIDTH 636 0
DWIDTH 10 0
BBX 10 13 0 -1
BITMAP
369990ACB5
2DFFC2FFA0
07FFC6FB00
01EFD8F500
00AFF9F300
008FFCB000
007FFF6000
006FFF7000
002FFFC000
001FFBF200
000EC3F800
000CD0DD00
0003306400
ENDCHAR
STARTCHAR l
ENCODING 108
SWIDTH 438 0
DWIDTH 7 0
BBX 8 13 0 -1
BITMAP
38BBCC40
0CFFF300
08FFD000
06FFD000
04FFB000
02FFC000
00CFB000
00BFA000
00AFA000
009FC321
007FFFF4
005FDEF0
003516A0
ENDCHAR
STARTCHAR m
ENCODING 109
SWIDTH 770 0
DWIDTH 12 0
BBX 12 14 0 -1
BITMAP
000000010000
0147B73DDC95
4FFFF85FFFD2
09FFFB9FFF60
08FFFEDFFF20
07FFFFFFFF00
03FFFFFFFC00
03FFFFFFFA00
00FFDFEEF800
00DFAFAFF500
00BF8F8FF100
00AF8D6FB000
008A7A5D8000
006101112000
ENDCHAR
STARTCHAR n
ENCODING 110
SWIDTH 664 0
DWIDTH 11 0
BBX 11 14 0 -2
BITMAP
6ABCC0999A30
2FFFF29FFB00
0AFFF88FF500
09FFFBAFF100
08FFFFDFD000
07FFFFFFB000
06FFFFFF9000
03FFFFFF7000
00FFBFFF4000
00EF5FFF2000
00CF3EFD0000
00BF2BF80000
008919C50000
000001210000
ENDCHAR
STARTCHAR o
ENCODING 111
SWIDTH 545 0
DWIDTH 9 0
BBX 9 14 0 -2
BITMAP
006BBB5000
0AFFFFF800
5FFFFFFF40
8FFFFFFF40
6FFFFFFF60
4FFE6FFF50
2FF91FFF30
0FF80EFF10
0CF80EFB00
09FB2FF700
05FFAFF300
01BFFFC000
0004596000
0000001000
ENDCHAR
STARTCHAR p
ENCODING 112
SWIDTH 557 0
DWIDTH 9 0
BBX 9 13 0 -1
BITMAP
49ABAAA300
1CFFFFFF20
05FFFFFF70
03FFFFFF60
02FFFFFF40
01FFC4FF30
00EFA0EF10
00CFB5FC00
00AFFFF800
008FD79100
007FC00000
006FD00000
0038800000
ENDCHAR
STARTCHAR q
ENCODING 113
SWIDTH 562 0
DWIDTH 9 0
BBX 9 14 0 -2
BITMAP
0039DC7000
1AFFFFFB10
2FFFFFFF50
8FFFFFFF80
9FFFEEFF90
6FFF45FF80
3FFF23FF70
0DFF10FF60
0CFF32FF50
07FF8CFF30
01DFFFFD00
002DFFFF60
000277BF50
0000000800
ENDCHAR
STARTCHAR r
ENCODING 114
SWIDTH 616 0
DWIDTH 10 0
BBX 10 14 0 -2
BITMAP
358BCBA500
3EFFFFFFD3
05FFFFFFF8
00FFFFFFF7
00DFFFFFF4
00BFF2BFF1
00AFF09FD0
009FFDEFB0
006FFFFF50
006FF9FB00
006FE4FC00
005FE3FC00
004A51AD00
0000000200
ENDCHAR
STARTCHAR s
ENCODING 115
SWIDTH 481 0
DWIDTH 8 0
BBX 8 13 0 -1
BITMAP
006BB810
08FFFFC1
3FFFFFF5
7FFFFFF3
8FFFFFF2
8FFACFF1
5FF948B0
1EFFF800
03CFFF30
0234CF60
0CFAAF50
06FFFD00
01BA8500
ENDCHAR
STARTCHAR t
ENCODING 116
SWIDTH 683 0
DWIDTH 11 0
BBX 11 14 0 -2
BITMAP
169CDDDCA720
4FFFFFFFFE10
0AFFFFFFF700
05FFFFFFF600
02FFFFFFF500
01FCDFFAD300
00209FF20000
00007FF30000
00007FF30000
00005FF20000
00003FF20000
00002FF10000
00002FF10000
000006A10000
ENDCHAR
STARTCHAR u
ENCODING 117
SWIDTH 708 0
DWIDTH 11 0
BBX 12 12 0 0
BITMAP
379BC1286500
0CFFF04FFFD2
08FFF15FFF50
04FFF33FFE10
01FFF44FFA00
00EFF45FF600
00CFF16FF400
00BFF28FF300
009FF58FF100
004FF7BFD000
000EFFFFA000
0006D7CC4000
ENDCHAR
STARTCHAR v
ENCODING 118
SWIDTH 644 0
DWIDTH 10 0
BBX 10 13 0 -1
BITMAP
29AB508B97
0AFF80EFF3
03FFA2FFB0
00EFC3FF60
00BFD4FF30
008FF5FE00
005FF7FC00
001FF9F900
000BFEF600
0006FFF300
0002FFD000
0000AFB000
00007C3000
ENDCHAR
STARTCHAR w
ENCODING 119
SWIDTH 704 0
DWIDTH 11 0
BBX 12 12 0 0
BITMAP
15770A537510
5DFF1FA4FFA1
04FF5FD7FF10
00DFAFFCF900
00AFEFFFF300
005FFFFFE000
000DFFFFD000
000AFFFFA000
0006FFCFA000
0002FDAF8000
0000DB8F5000
0000577D4000
ENDCHAR
STARTCHAR x
ENCODING 120
SWIDTH 599 0
DWIDTH 10 0
BBX 10 13 0 -1
BITMAP
37AC56A840
08FF89FFA2
00AFDEF700
003FFFE000
000CFFA000
000AFF8000
0009FF4000
0005FF2000
0007FF1000
0009FF4000
000CBF8000
001F8DD000
0038236100
ENDCHAR
STARTCHAR y
ENCODING 121
SWIDTH 604 0
DWIDTH 10 0
BBX 10 13 0 -1
BITMAP
28AA12A520
08FF75FFB1
006FCCFC00
001DFFF200
0009FFC000
0006FFA000
0002FF9000
0000EF7000
0000CF6000
0000CF6000
0000CF5000
0000CF2000
0000981000
ENDCHAR
STARTCHAR z
ENCODING 122
SWIDTH 622 0
DWIDTH 10 0
BBX 10 13 0 -1
BITMAP
27BDCDC971
3FFFFFFFF3
0AFFFFFFB0
04FFFFFF60
00FFFFFF30
00CC9FFA00
00309FC000
0000EF4000
0003FC0000
0007F60000
000CFFF400
000FFFF300
0005259100
ENDCHAR
STARTCHAR braceleft
ENCODING 123
SWIDTH 372 0
DWIDTH 6 0
BBX 6 16 0 -2
BITMAP
000046
001CF9
00BFF7
04FFF5
0CFFF4
1FFFE2
3FFD00
5FF800
6FF700
5FF600
4FF700
1FFA00
0BFF30
04FFE0
00BFF2
0018C1
ENDCHAR
STARTCHAR bar
ENCODING 124
SWIDTH 208 0
DWIDTH 3 0
BBX 3 15 0 -2
BITMAP
0930
0F50
1F40
0E60
0E30
0F20
0F30
0F40
0F40
0F30
0E20
0D20
0F20
0F20
0720
ENDCHAR
STARTCHAR braceright
ENCODING 125
SWIDTH 338 0
DWIDTH 5 0
BBX 5 17 0 -3
BITMAP
220000
8FE300
6FFE20
5FFF80
4FFF90
4FFF90
15EF90
00BF80
009F80
009F70
00AF50
00CF30
01FF10
15FA00
7FE200
9F4000
010000
ENDCHAR
STARTCHAR asciitilde
ENCODING 126
SWIDTH 535 0
DWIDTH 9 0
BBX 8 4 0 9
BITMAP
01100430
2DD4AFF4
2EFFFFFC
04DE75B2
ENDCHAR
STARTCHAR exclamdown
ENCODING 161
SWIDTH 347 0
DWIDTH 6 0
BBX 6 20 0 0
BITMAP
099660
0CFFE0
0CFFF0
0EFFD0
4FFFE0
002320
000200
02DC00
03FE00
03FF00
04FE10
06FF30
08FF20
0DFF40
1FFF60
0FFF80
1DFF90
6FFFD1
6EFFD1
013100
ENDCHAR
STARTCHAR cent
ENCODING 162
SWIDTH 552 0
DWIDTH 9 0
BBX 9 23 0 -6
BITMAP
0000500000
0000B00000
0000C00000
0000C00000
0000C00000
005AFC7000
09FFFFF900
4FFFFFFF30
8FFFFFFF20
7FFFFFFF30
3FFF8EFF10
0EFF09FF00
0DFE013500
0BFE010000
07FF1BE300
04FF8FF100
00DFFFB000
0037BB0000
0000800000
0000900000
0000A00000
0000B00000
0000800000
ENDCHAR
STARTCHAR sterling
ENCODING 163
SWIDTH 589 0
DWIDTH 9 0
BBX 9 14 0 -2
BITMAP
007AA95000
0AFFFFFA00
3FFFFFFF70
4FFFFFFFC0
3FFFFFFFC0
1FFF8FFF80
0DFD0AFF40
2DFD536920
3CFFC00000
02FF742400
04FFFFF900
06FFDFF400
022966C000
0000001000
ENDCHAR
STARTCHAR yen
ENCODING 165
SWIDTH 692 0
DWIDTH 11 0
BBX 12 13 -1 1
BITMAP
189AB3059653
02AFFA09FFF6
000AFF5FFF60
0001CFFFF800
00005FFFF000
00878FFFFCB4
009A9CFFC671
004548FFB553
00BCDEFFECC6
000003FF7000
000001FF6000
000000DF7000
000000764000
ENDCHAR
STARTCHAR brokenbar
ENCODING 166
SWIDTH 201 0
DWIDTH 3 0
BBX 3 15 0 -2
BITMAP
0C10
2F30
1F40
2F20
0F20
0710
0000
0000
0000
0E30
0E20
0E10
0D30
0E40
0710
ENDCHAR
STARTCHAR section
ENCODING 167
SWIDTH 477 0
DWIDTH 8 0
BBX 8 15 0 -3
BITMAP
004CEB30
04FFFFF2
0BFFFFF1
0BFFFFC0
09FDBF90
07FD4730
07FFFD20
3FFADF60
8FF17F60
8FF4BE10
3FFFF900
05ADF800
18A4F900
0CFEF400
04EBA000
ENDCHAR
STARTCHAR dieresis
ENCODING 168
SWIDTH 633 0
DWIDTH 10 0
BBX 8 5 1 12
BITMAP
676138B8
DFF36FFD
EFF36FFD
DFF36FFD
12200101
ENDCHAR
STARTCHAR copyright
ENCODING 169
SWIDTH 783 0
DWIDTH 13 0
BBX 12 15 0 -2
BITMAP
000014420000
0007ECDDB200
00BB26963B30
08D1AFFF71B0
1E54FFFFE056
4D06FFFFE01B
6A05FFCFE00C
6B03FE1FC00D
5C02FD01101D
3E00ED183049
0D40BF7F60B4
06C07FFE16C0
00AB23349E20
0007EDDFB200
000002310000
ENDCHAR
STARTCHAR guillemotleft
ENCODING 171
SWIDTH 759 0
DWIDTH 12 0
BBX 12 9 0 1
BITMAP
000BAA22BBA4
008FF70AFFA0
04FFE16FFE10
1EFF60DFF700
6FFC02FFD000
1EFE20BFF500
03EF902EFB00
005FF805FF90
0007CD407BD6
ENDCHAR
STARTCHAR uni00AD
ENCODING 173
SWIDTH 446 0
DWIDTH 7 0
BBX 7 3 0 4
BITMAP
19978820
2FFFFF30
02544510
ENDCHAR
STARTCHAR registered
ENCODING 174
SWIDTH 780 0
DWIDTH 12 0
BBX 12 15 0 -2
BITMAP
000002300000
0018EB898100
00CE66532910
08DDFFFF72A0
1E44FFFFD074
4E01FFFFD03B
7B01FE3FC03E
3800DF6FA03E
2900AFFF502A
0D005F9D5008
09801F9BC044
02E80956B2A0
004EC6349D20
0002AEFE9100
000000100000
ENDCHAR
STARTCHAR macron
ENCODING 175
SWIDTH 446 0
DWIDTH 7 0
BBX 7 3 0 4
BITMAP
19978820
2FFFFF30
02544510
ENDCHAR
STARTCHAR acute
ENCODING 180
SWIDTH 439 0
DWIDTH 7 0
BBX 6 5 1 12
BITMAP
000100
005D00
06FF60
AFFD81
A62000
ENDCHAR
STARTCHAR mu
ENCODING 181
SWIDTH 679 0
DWIDTH 11 0
BBX 11 13 0 -1
BITMAP
47AC90485300
2FFFB08FFFA0
0DFFB09FFF10
09FFE08FFB00
06FFF09FF500
04FFE09FF200
02FFC0BFF000
01FFC0CFE000
00DFE0EFB000
009FE3FF8000
005FFFFF5000
001AB8CB1000
000000100000
ENDCHAR
STARTCHAR paragraph
ENCODING 182
SWIDTH 591 0
DWIDTH 9 0
BBX 10 13 0 -1
BITMAP
049AACB973
4FFFFFFFB1
8FFFFC9F30
7FFFFA4F20
4FFFFA5F10
1FFFF95F00
09FFF95E00
01A9A85B00
0000785800
0000685600
0000685600
0000775500
0000444400
ENDCHAR
STARTCHAR periodcentered
ENCODING 183
SWIDTH 388 0
DWIDTH 6 0
BBX 6 6 0 3
BITMAP
156871
0EFFF2
0DFFF3
0BFFF3
0BFFF2
044120
ENDCHAR
STARTCHAR cedilla
ENCODING 184
SWIDTH 270 0
DWIDTH 4 0
BBX 4 6 0 -6
BITMAP
0B80
1E20
3FE9
00A9
2CE9
1342
ENDCHAR
STARTCHAR guillemotright
ENCODING 187
SWIDTH 767 0
DWIDTH 12 0
BBX 12 9 0 1
BITMAP
4DDD40998000
0BFF905FF900
01EFF308FF60
006FFD10FFE3
001EFF207FFA
006FFC00DFF9
03EFE107FFE1
3EFF702EFF40
3AA800BEF900
ENDCHAR
STARTCHAR Agrave
ENCODING 192
SWIDTH 494 0
DWIDTH 8 0
BBX 9 21 -1 -4
BITMAP
07A1000000
1CFC200000
4BEFE40000
0004850000
0000000000
0378887510
009FFFFB10
005FFFF400
004FFFF200
005FFFF100
004FFFE000
004FCEE000
005F8DE000
005F6CE000
005FFFE000
006FFFC000
003F9E9000
003E2C7000
0016135000
0000041000
0000010000
ENDCHAR
STARTCHAR Aacute
ENCODING 193
SWIDTH 494 0
DWIDTH 8 0
BBX 10 22 0 -4
BITMAP
0000000100
0000002D30
000004EF90
00007FFE92
0000873000
0000000000
3788875100
09FFFFB100
05FFFF4000
04FFFF2000
05FFFF1000
04FFFE0000
04FCEE0000
05F8DE0000
05F6CE0000
05FFFE0000
06FFFC0000
03F9E90000
03E2C70000
0161350000
0000410000
0000100000
ENDCHAR
STARTCHAR Acircumflex
ENCODING 194
SWIDTH 494 0
DWIDTH 8 0
BBX 8 23 0 -4
BITMAP
0089A400
02FFFC00
09FEFF50
1EE38FD0
7F400BF5
45000170
00000000
37888751
09FFFFB1
05FFFF40
04FFFF20
05FFFF10
04FFFE00
04FCEE00
05F8DE00
05F6CE00
05FFFE00
06FFFC00
03F9E900
03E2C700
01613500
00004100
00001000
ENDCHAR
STARTCHAR Atilde
ENCODING 195
SWIDTH 494 0
DWIDTH 8 0
BBX 8 21 0 -4
BITMAP
00000300
3D72AFB0
7FFFFFF7
0AFE8AC1
00210000
37888751
09FFFFB1
05FFFF40
04FFFF20
05FFFF10
04FFFE00
04FCEE00
05F8DE00
05F6CE00
05FFFE00
06FFFC00
03F9E900
03E2C700
01613500
00004100
00001000
ENDCHAR
STARTCHAR Adieresis
ENCODING 196
SWIDTH 494 0
DWIDTH 8 0
BBX 8 21 0 -4
BITMAP
676138B8
DFF46FFD
DFF46FFD
DFF36FFD
12200101
37888751
09FFFFB1
05FFFF40
04FFFF20
05FFFF10
04FFFE00
04FCEE00
05F8DE00
05F6CE00
05FFFE00
06FFFC00
03F9E900
03E2C700
01613500
00004100
00001000
ENDCHAR
STARTCHAR Aring
ENCODING 197
SWIDTH 494 0
DWIDTH 8 0
BBX 8 22 0 -4
BITMAP
00011000
009FF900
01F66F20
00D32D10
009EF600
00024000
37888751
09FFFFB1
05FFFF40
04FFFF20
05FFFF10
04FFFE00
04FCEE00
05F8DE00
05F6CE00
05FFFE00
06FFFC00
03F9E900
03E2C700
01613500
00004100
00001000
ENDCHAR
STARTCHAR AE
ENCODING 198
SWIDTH 733 0
DWIDTH 12 0
BBX 12 16 0 -4
BITMAP
3689ABCBA861
19FFFFFFFFC0
05FFFFFFFF60
05FFFFFFFF10
04FFFFFFFD00
03FFFFD59900
04FCEFD53000
05F8DFFFE000
05F6DFFDC000
05FFFFB10000
06FFFFFFE200
04F8EADED000
02E1C5855000
016143705000
000040201000
000010000000
ENDCHAR
STARTCHAR Ccedilla
ENCODING 199
SWIDTH 504 0
DWIDTH 8 0
BBX 8 20 0 -8
BITMAP
007CDB30
0AFFFFE2
4FFFFFF9
8FFFFFFA
7FFFFFFA
6FFD9FF9
3FFA1FF7
1FF90101
0DF80200
0BFA3FE1
07FEBFC0
03FFFF40
0027B700
00036100
00000E50
00004D00
00006FE6
000000D6
00005CF5
00001351
ENDCHAR
STARTCHAR Egrave
ENCODING 200
SWIDTH 570 0
DWIDTH 9 0
BBX 9 18 0 -1
BITMAP
0C60000000
4FF8000000
7CFFC10000
0015A10000
0000000000
39ABBB9730
1EFFFFFF20
08FFFFFD00
07FFFFF900
07FFFFF500
05FF77B200
04FF741000
02FFFF4000
01FFDD3000
00EF200000
00CFFF8000
0099FD5000
0034723000
ENDCHAR
STARTCHAR Eacute
ENCODING 201
SWIDTH 570 0
DWIDTH 9 0
BBX 10 19 0 -1
BITMAP
0000000010
00000006C0
0000008FF5
00001BFFC8
00001A6200
0000000000
39ABBB9730
1EFFFFFF20
08FFFFFD00
07FFFFF900
07FFFFF500
05FF77B200
04FF741000
02FFFF4000
01FFDD3000
00EF200000
00CFFF8000
0099FD5000
0034723000
ENDCHAR
STARTCHAR Ecircumflex
ENCODING 202
SWIDTH 570 0
DWIDTH 9 0
BBX 9 20 0 -1
BITMAP
001A9A1000
007FFF7000
00EFEFE100
06FB1DF800
0CD102EE00
0720003500
0000000000
39ABBB9730
1EFFFFFF20
08FFFFFD00
07FFFFF900
07FFFFF500
05FF77B200
04FF741000
02FFFF4000
01FFDD3000
00EF200000
00CFFF8000
0099FD5000
0034723000
ENDCHAR
STARTCHAR Edieresis
ENCODING 203
SWIDTH 570 0
DWIDTH 9 0
BBX 9 18 0 -1
BITMAP
1866059A40
3FFD0BFF80
4FFD0BFF80
3FFD0BFF80
0232011000
39ABBB9730
1EFFFFFF20
08FFFFFD00
07FFFFF900
07FFFFF500
05FF77B200
04FF741000
02FFFF4000
01FFDD3000
00EF200000
00CFFF8000
0099FD5000
0034723000
ENDCHAR
STARTCHAR Igrave
ENCODING 204
SWIDTH 401 0
DWIDTH 6 0
BBX 8 18 -2 -1
BITMAP
04C20000
0AFE3000
3AEFF600
00037700
00000000
006DCCCA
002DFFF7
0005FFF2
0002FFF3
0003FFF1
0003FFD0
0002FFC0
0000FFC0
0000EF90
0000CFA0
0000AF90
00007B90
00003430
ENDCHAR
STARTCHAR Iacute
ENCODING 205
SWIDTH 401 0
DWIDTH 6 0
BBX 9 18 0 -1
BITMAP
000001B600
00002DFC10
0005EFEA40
0006840000
0000000000
6DCCCA0000
2DFFF70000
05FFF20000
02FFF30000
03FFF10000
03FFD00000
02FFC00000
00FFC00000
00EF900000
00CFA00000
00AF900000
007B900000
0034300000
ENDCHAR
STARTCHAR Icircumflex
ENCODING 206
SWIDTH 401 0
DWIDTH 6 0
BBX 8 20 -1 -1
BITMAP
00699600
00EFFE10
06FEFF80
0DF56FE1
4F7008F8
27000071
00000000
06DCCCA0
02DFFF70
005FFF20
002FFF30
003FFF10
003FFD00
002FFC00
000FFC00
000EF900
000CFA00
000AF900
0007B900
00034300
ENDCHAR
STARTCHAR Idieresis
ENCODING 207
SWIDTH 401 0
DWIDTH 6 0
BBX 9 18 -1 -1
BITMAP
486218A900
AFF63FFF10
AFF63FFF10
AFF63FFF10
1231010100
06DCCCA000
02DFFF7000
005FFF2000
002FFF3000
003FFF1000
003FFD0000
002FFC0000
000FFC0000
000EF90000
000CFA0000
000AF90000
0007B90000
0003430000
ENDCHAR
STARTCHAR Eth
ENCODING 208
SWIDTH 530 0
DWIDTH 9 0
BBX 9 15 0 -3
BITMAP
0258ABB200
0AFFFFFD20
05FFFFFF80
00FFFFFFB0
00CFFFFFB0
00BFF7EF90
009FD1AF60
4DEFFAAF20
007FC0BD00
004FD0EA00
002FFEF900
002EAFF300
00171D4000
0003160000
0000010000
ENDCHAR
STARTCHAR Ntilde
ENCODING 209
SWIDTH 610 0
DWIDTH 10 0
BBX 10 20 0 -3
BITMAP
0000012000
06E34CF800
0BFFFFFF30
01DFD7C900
0003000000
289A67A861
4DFF95FFB0
09FFE4FF30
08FFF8FF20
07FFFEFF00
05FFFFFD00
03FFFFFB00
01FFFFF900
00CFBFF800
00BF7FF800
00AF4EF700
008F4BF400
007A48C300
0050333000
0020210000
ENDCHAR
STARTCHAR Ograve
ENCODING 210
SWIDTH 504 0
DWIDTH 8 0
BBX 9 19 -1 -2
BITMAP
07A1000000
2DFC100000
5BFFE40000
0014850000
0000000000
0006BA7100
00AFFFFD20
05FFFFFF80
08FFFFFF90
06FFFFFF80
04FFAAFF90
02FF55FF90
00FF43FF80
00DF63FF30
00AF86FF10
008FECFB00
003EFFF500
0002988100
0000130000
ENDCHAR
STARTCHAR Oacute
ENCODING 211
SWIDTH 504 0
DWIDTH 8 0
BBX 10 20 0 -2
BITMAP
0000000100
0000003D20
000004EF90
00007FFD92
0000873000
0000000000
006BA71000
0AFFFFD200
5FFFFFF800
8FFFFFF900
6FFFFFF800
4FFAAFF900
2FF55FF900
0FF43FF800
0DF63FF300
0AF86FF100
08FECFB000
03EFFF5000
0029881000
0001300000
ENDCHAR
STARTCHAR Ocircumflex
ENCODING 212
SWIDTH 504 0
DWIDTH 8 0
BBX 8 21 0 -2
BITMAP
0089A400
03FFFC00
09FEFF40
1FE29FC0
8F400BF4
45000170
00000000
006BA710
0AFFFFD2
5FFFFFF8
8FFFFFF9
6FFFFFF8
4FFAAFF9
2FF55FF9
0FF43FF8
0DF63FF3
0AF86FF1
08FECFB0
03EFFF50
00298810
00013000
ENDCHAR
STARTCHAR Otilde
ENCODING 213
SWIDTH 504 0
DWIDTH 8 0
BBX 8 19 0 -2
BITMAP
00001200
7E34CF70
CFFFFFF2
2DFC7D80
00300000
006BA710
0AFFFFD2
5FFFFFF8
8FFFFFF9
6FFFFFF8
4FFAAFF9
2FF55FF9
0FF43FF8
0DF63FF3
0AF86FF1
08FECFB0
03EFFF50
00298810
00013000
ENDCHAR
STARTCHAR Odieresis
ENCODING 214
SWIDTH 504 0
DWIDTH 8 0
BBX 8 19 0 -2
BITMAP
676138B8
EFF37FFC
EFF36FFD
EFF26FFC
12200100
006BA710
0AFFFFD2
5FFFFFF8
8FFFFFF9
6FFFFFF8
4FFAAFF9
2FF55FF9
0FF43FF8
0DF63FF3
0AF86FF1
08FECFB0
03EFFF50
00298810
00013000
ENDCHAR
STARTCHAR multiply
ENCODING 215
SWIDTH 359 0
DWIDTH 6 0
BBX 6 6 0 3
BITMAP
0A56A0
9FEEF6
1CFFB1
1CFFC1
8FEEF7
0B54B0
ENDCHAR
STARTCHAR Oslash
ENCODING 216
SWIDTH 658 0
DWIDTH 11 0
BBX 12 14 -1 -2
BITMAP
00029BA50000
004FFFFFB124
00DFFFFFF690
01FFFFFFFB00
00EFFFFFF400
00CFF5EFF500
00AFC1DFF500
008FCABFF400
006FE29FE100
003FF1CFC000
008FFAFF8000
0739FFFF2000
230092D70000
000010300000
ENDCHAR
STARTCHAR Ugrave
ENCODING 217
SWIDTH 637 0
DWIDTH 10 0
BBX 10 18 0 -1
BITMAP
03C2000000
0AFE300000
3AEFF60000
0003770000
0000000000
49CC61A862
0CFF72FFF5
0AFF62FFE0
08FF92FFA0
05FF93FF70
03FF83FF30
02FF55FF10
02FF66FF00
01FF87FD00
00DFA9FB00
00AFFFF800
004E8BA200
0004024000
ENDCHAR
STARTCHAR Uacute
ENCODING 218
SWIDTH 637 0
DWIDTH 10 0
BBX 11 18 0 -1
BITMAP
00000001B600
0000002DFC10
000004EFEA40
000006840000
000000000000
49CC61A86200
0CFF72FFF500
0AFF62FFE000
08FF92FFA000
05FF93FF7000
03FF83FF3000
02FF55FF1000
02FF66FF0000
01FF87FD0000
00DFA9FB0000
00AFFFF80000
004E8BA20000
000402400000
ENDCHAR
STARTCHAR Ucircumflex
ENCODING 219
SWIDTH 637 0
DWIDTH 10 0
BBX 10 20 0 -1
BITMAP
0006996000
000DFFE100
005FEEF800
00CF55FE10
04F7008F80
0270000720
0000000000
49CC61A862
0CFF72FFF5
0AFF62FFE0
08FF92FFA0
05FF93FF70
03FF83FF30
02FF55FF10
02FF66FF00
01FF87FD00
00DFA9FB00
00AFFFF800
004E8BA200
0004024000
ENDCHAR
STARTCHAR Udieresis
ENCODING 220
SWIDTH 637 0
DWIDTH 10 0
BBX 10 18 0 -1
BITMAP
0486317AA1
0AFF73FFF1
0AFF72FFF2
0AFF62FFF1
0123101000
49CC61A862
0CFF72FFF5
0AFF62FFE0
08FF92FFA0
05FF93FF70
03FF83FF30
02FF55FF10
02FF66FF00
01FF87FD00
00DFA9FB00
00AFFFF800
004E8BA200
0004024000
ENDCHAR
STARTCHAR Yacute
ENCODING 221
SWIDTH 688 0
DWIDTH 11 0
BBX 12 19 0 -1
BITMAP
000000000100
000000005D00
00000007FF50
000000BFFC80
000000A62000
000000000000
48BC802B6400
06EFF35FFF91
003FFABFF700
0005FFFF9000
0000DFFF2000
00007FFF0000
00002FFD0000
00000CFC0000
000009FB0000
000006FA0000
000005F90000
000004F80000
000002620000
ENDCHAR
STARTCHAR Thorn
ENCODING 222
SWIDTH 521 0
DWIDTH 8 0
BBX 8 17 0 -2
BITMAP
47786000
AFFF7000
8FFF4000
6FFFCB91
4FFFFFF9
2FFFFFFC
2FFFFFFC
0FFFFFFC
0DFF58FA
0BFF35F8
08FF78F4
05FFFFE1
02FF9740
02FF5000
01FF5000
00A84000
00641000
ENDCHAR
STARTCHAR germandbls
ENCODING 223
SWIDTH 546 0
DWIDTH 9 0
BBX 9 14 0 -2
BITMAP
0279998200
1DFFFFFE10
4FFFFFFF40
5FFFFFFF40
7FFFFFFF30
5FFD5EFD00
3FFC0CF700
0FFB7EF200
0DFBAFB000
0BFB3FF200
0AFC0EF100
06FB8FD000
05889F7000
0000010000
ENDCHAR
STARTCHAR agrave
ENCODING 224
SWIDTH 479 0
DWIDTH 8 0
BBX 9 19 -1 -2
BITMAP
04C2000000
1BFD300000
3AEFE60000
0003770000
0000000000
05BCDEDE60
01CFFFFB00
005FFFF800
003FFFF700
005FFFF600
004FFFF500
003FEDF500
005FBBF600
006F99F700
006FBCF600
007FFFF400
006FAAF300
006F46F200
0015001000
ENDCHAR
STARTCHAR aacute
ENCODING 225
SWIDTH 479 0
DWIDTH 8 0
BBX 10 19 0 -2
BITMAP
0000001C50
000002DFB1
00005EFEA4
0000684000
0000000000
5BCDEDE600
1CFFFFB000
05FFFF8000
03FFFF7000
05FFFF6000
04FFFF5000
03FEDF5000
05FBBF6000
06F99F7000
06FBCF6000
07FFFF4000
06FAAF3000
06F46F2000
0150010000
ENDCHAR
STARTCHAR acircumflex
ENCODING 226
SWIDTH 479 0
DWIDTH 8 0
BBX 8 21 0 -2
BITMAP
0069A600
01EFFE10
06FEFF80
0DF46FE1
4F6008F7
27000071
00000000
5BCDEDE6
1CFFFFB0
05FFFF80
03FFFF70
05FFFF60
04FFFF50
03FEDF50
05FBBF60
06F99F70
06FBCF60
07FFFF40
06FAAF30
06F46F20
01500100
ENDCHAR
STARTCHAR atilde
ENCODING 227
SWIDTH 479 0
DWIDTH 8 0
BBX 8 19 0 -2
BITMAP
00000300
4E53BFA0
9FFFFFF5
0BFD7BB1
00300000
5BCDEDE6
1CFFFFB0
05FFFF80
03FFFF70
05FFFF60
04FFFF50
03FEDF50
05FBBF60
06F99F70
06FBCF60
07FFFF40
06FAAF30
06F46F20
01500100
ENDCHAR
STARTCHAR adieresis
ENCODING 228
SWIDTH 479 0
DWIDTH 8 0
BBX 9 19 0 -2
BITMAP
586228A900
AFF63FFF10
BFF63FFF10
AFF63FFF10
1231010100
5BCDEDE600
1CFFFFB000
05FFFF8000
03FFFF7000
05FFFF6000
04FFFF5000
03FEDF5000
05FBBF6000
06F99F7000
06FBCF6000
07FFFF4000
06FAAF3000
06F46F2000
0150010000
ENDCHAR
STARTCHAR aring
ENCODING 229
SWIDTH 479 0
DWIDTH 8 0
BBX 8 20 0 -2
BITMAP
00012000
007FFA00
00E75E40
00B61D20
008EF800
00025000
5BCDEDE6
1CFFFFB0
05FFFF80
03FFFF70
05FFFF60
04FFFF50
03FEDF50
05FBBF60
06F99F70
06FBCF60
07FFFF40
06FAAF30
06F46F20
01500100
ENDCHAR
STARTCHAR ae
ENCODING 230
SWIDTH 755 0
DWIDTH 12 0
BBX 12 14 0 -2
BITMAP
5BCDEDEDB963
1BFFFFFFFFF3
04FFFFFFFFA0
02FFFFFFFF50
03FFFFFFFF40
03FFFFF8AE10
01FFDFF20100
04FDAFFEE300
05FB8FFFF200
05FCBFF55000
06FFFFF98400
04FB9FFFF500
05F55F386400
015101000000
ENDCHAR
STARTCHAR ccedilla
ENCODING 231
SWIDTH 534 0
DWIDTH 9 0
BBX 9 19 0 -7
BITMAP
006BEC6000
09FFFFF800
5FFFFFFF20
8FFFFFFF10
8FFFFFFF20
5FFF8EFF10
1FFE0AFE00
0EFE024500
0CFD000000
08FF0CD200
04FF8FF100
00DFFFA000
00377B0000
00006D0000
0000A70000
0000CFD000
000005E000
0000ADE000
0000344000
ENDCHAR
STARTCHAR egrave
ENCODING 232
SWIDTH 632 0
DWIDTH 10 0
BBX 10 18 0 -1
BITMAP
06B1000000
1CFD200000
4AEFE40000
0004860000
0000000000
158ABBA973
5FFFFFFFF3
0AFFFFFFA0
07FFFFFF50
04FFFFFF40
01FFE9AE10
00EFE00000
00BFFEE300
009FFFF300
007FE45100
005FE98400
002FFFF500
0006476400
ENDCHAR
STARTCHAR eacute
ENCODING 233
SWIDTH 632 0
DWIDTH 10 0
BBX 11 19 0 -1
BITMAP
000000001000
00000002D300
0000003EFA00
000006FFE930
000007730000
000000000000
158ABBA97300
5FFFFFFFF300
0AFFFFFFA000
07FFFFFF5000
04FFFFFF4000
01FFE9AE1000
00EFE0000000
00BFFEE30000
009FFFF30000
007FE4510000
005FE9840000
002FFFF50000
000647640000
ENDCHAR
STARTCHAR ecircumflex
ENCODING 234
SWIDTH 632 0
DWIDTH 10 0
BBX 10 20 0 -1
BITMAP
00079A5000
002FFFD000
008FEFF600
01EE38FD00
06F500AF50
0460000710
0000000000
158ABBA973
5FFFFFFFF3
0AFFFFFFA0
07FFFFFF50
04FFFFFF40
01FFE9AE10
00EFE00000
00BFFEE300
009FFFF300
007FE45100
005FE98400
002FFFF500
0006476400
ENDCHAR
STARTCHAR edieresis
ENCODING 235
SWIDTH 632 0
DWIDTH 10 0
BBX 10 18 0 -1
BITMAP
0676228B80
0CFF45FFE0
0DFF45FFE0
0CFF45FFE0
0122001010
158ABBA973
5FFFFFFFF3
0AFFFFFFA0
07FFFFFF50
04FFFFFF40
01FFE9AE10
00EFE00000
00BFFEE300
009FFFF300
007FE45100
005FE98400
002FFFF500
0006476400
ENDCHAR
STARTCHAR igrave
ENCODING 236
SWIDTH 411 0
DWIDTH 7 0
BBX 9 18 -2 -1
BITMAP
02D2000000
09FE400000
29EFF70000
0003780000
0000000000
004ACCB910
001DFFF900
0003FFF400
0001FFF200
0002FFE000
0002FFC000
0001FFB000
0000DFC000
0000BF9000
00009F8000
00008F7000
00007D6000
0000123000
ENDCHAR
STARTCHAR iacute
ENCODING 237
SWIDTH 411 0
DWIDTH 7 0
BBX 9 18 0 -1
BITMAP
000001A700
00001CFC20
0004EFEB50
0005941000
0000000000
4ACCB91000
1DFFF90000
03FFF40000
01FFF20000
02FFE00000
02FFC00000
01FFB00000
00DFC00000
00BF900000
009F800000
008F700000
007D600000
0012300000
ENDCHAR
STARTCHAR icircumflex
ENCODING 238
SWIDTH 411 0
DWIDTH 7 0
BBX 8 20 0 -1
BITMAP
01A9A100
07FFF800
0DFEFE10
5FC1CF80
CD102EE1
72000360
00000000
4ACCB910
1DFFF900
03FFF400
01FFF200
02FFE000
02FFC000
01FFB000
00DFC000
00BF9000
009F8000
008F7000
007D6000
00123000
ENDCHAR
STARTCHAR idieresis
ENCODING 239
SWIDTH 411 0
DWIDTH 7 0
BBX 9 18 -1 -1
BITMAP
486317AA10
9FF82FFF20
9FF82FFF20
9FF71FFF20
1231010000
04ACCB9100
01DFFF9000
003FFF4000
001FFF2000
002FFE0000
002FFC0000
001FFB0000
000DFC0000
000BF90000
0009F80000
0008F70000
0007D60000
0001230000
ENDCHAR
STARTCHAR eth
ENCODING 240
SWIDTH 530 0
DWIDTH 9 0
BBX 9 15 0 -3
BITMAP
0258ABB200
0AFFFFFD20
05FFFFFF80
00FFFFFFB0
00CFFFFFB0
00BFF7EF90
009FD1AF60
4DEFFAAF20
007FC0BD00
004FD0EA00
002FFEF900
002EAFF300
00171D4000
0003160000
0000010000
ENDCHAR
STARTCHAR ntilde
ENCODING 241
SWIDTH 664 0
DWIDTH 11 0
BBX 11 19 0 -2
BITMAP
000000300000
02CA18ED2000
04FFFFFFA000
007FF99D3000
000210000000
6ABCC0999A30
2FFFF29FFB00
0AFFF88FF500
09FFFBAFF100
08FFFFDFD000
07FFFFFFB000
06FFFFFF9000
03FFFFFF7000
00FFBFFF4000
00EF5FFF2000
00CF3EFD0000
00BF2BF80000
008919C50000
000001210000
ENDCHAR
STARTCHAR ograve
ENCODING 242
SWIDTH 545 0
DWIDTH 9 0
BBX 10 19 -1 -2
BITMAP
02D3000000
08FE400000
29DFF80000
0003780000
0000000000
0006BBB500
00AFFFFF80
05FFFFFFF4
08FFFFFFF4
06FFFFFFF6
04FFE6FFF5
02FF91FFF3
00FF80EFF1
00CF80EFB0
009FB2FF70
005FFAFF30
001BFFFC00
0000459600
0000000100
ENDCHAR
STARTCHAR oacute
ENCODING 243
SWIDTH 545 0
DWIDTH 9 0
BBX 10 19 0 -2
BITMAP
0000000A70
000001CFD2
00003DFFB5
0000494100
0000000000
006BBB5000
0AFFFFF800
5FFFFFFF40
8FFFFFFF40
6FFFFFFF60
4FFE6FFF50
2FF91FFF30
0FF80EFF10
0CF80EFB00
09FB2FF700
05FFAFF300
01BFFFC000
0004596000
0000001000
ENDCHAR
STARTCHAR ocircumflex
ENCODING 244
SWIDTH 545 0
DWIDTH 9 0
BBX 9 21 0 -2
BITMAP
0059970000
00CFFF2000
04FFEFA000
0BF64FF200
2F8006F900
2700006200
0000000000
006BBB5000
0AFFFFF800
5FFFFFFF40
8FFFFFFF40
6FFFFFFF60
4FFE6FFF50
2FF91FFF30
0FF80EFF10
0CF80EFB00
09FB2FF700
05FFAFF300
01BFFFC000
0004596000
0000001000
ENDCHAR
STARTCHAR otilde
ENCODING 245
SWIDTH 545 0
DWIDTH 9 0
BBX 9 19 0 -2
BITMAP
0000030000
3D72AFB100
7FFFFFF700
0AFE8AC100
0021000000
006BBB5000
0AFFFFF800
5FFFFFFF40
8FFFFFFF40
6FFFFFFF60
4FFE6FFF50
2FF91FFF30
0FF80EFF10
0CF80EFB00
09FB2FF700
05FFAFF300
01BFFFC000
0004596000
0000001000
ENDCHAR
STARTCHAR odieresis
ENCODING 246
SWIDTH 545 0
DWIDTH 9 0
BBX 9 19 0 -2
BITMAP
386317AA10
8FF81FFF30
9FF81FFF30
8FF81FFF30
1231010000
006BBB5000
0AFFFFF800
5FFFFFFF40
8FFFFFFF40
6FFFFFFF60
4FFE6FFF50
2FF91FFF30
0FF80EFF10
0CF80EFB00
09FB2FF700
05FFAFF300
01BFFFC000
0004596000
0000001000
ENDCHAR
STARTCHAR oslash
ENCODING 248
SWIDTH 676 0
DWIDTH 11 0
BBX 11 14 0 -2
BITMAP
005ACB500120
06FFFFF71910
2FFFFFFFA100
4FFFFFFF4000
2FFFFFFF4000
0FFE6FFF4000
0DFA7FFF3000
0AFD6CFE0000
08FA0EFB0000
05FC2FF70000
29FFAFF30000
70AEFFC00000
00035A600000
000000100000
ENDCHAR
STARTCHAR ugrave
ENCODING 249
SWIDTH 708 0
DWIDTH 11 0
BBX 12 17 0 0
BITMAP
00A800000000
03EFA1000000
06BFFD200000
000159300000
000000000000
379BC1286500
0CFFF04FFFD2
08FFF15FFF50
04FFF33FFE10
01FFF44FFA00
00EFF45FF600
00CFF16FF400
00BFF28FF300
009FF58FF100
004FF7BFD000
000EFFFFA000
0006D7CC4000
ENDCHAR
STARTCHAR uacute
ENCODING 250
SWIDTH 708 0
DWIDTH 11 0
BBX 12 18 0 0
BITMAP
000000000100
000000004D00
00000006FF60
000000AFFD81
000000A62000
000000000000
379BC1286500
0CFFF04FFFD2
08FFF15FFF50
04FFF33FFE10
01FFF44FFA00
00EFF45FF600
00CFF16FF400
00BFF28FF300
009FF58FF100
004FF7BFD000
000EFFFFA000
0006D7CC4000
ENDCHAR
STARTCHAR ucircumflex
ENCODING 251
SWIDTH 708 0
DWIDTH 11 0
BBX 12 19 0 0
BITMAP
000099A20000
0005FFF90000
000CFEFF2000
003FD1BFA000
00AE201DF200
006300027000
000000000000
379BC1286500
0CFFF04FFFD2
08FFF15FFF50
04FFF33FFE10
01FFF44FFA00
00EFF45FF600
00CFF16FF400
00BFF28FF300
009FF58FF100
004FF7BFD000
000EFFFFA000
0006D7CC4000
ENDCHAR
STARTCHAR udieresis
ENCODING 252
SWIDTH 708 0
DWIDTH 11 0
BBX 12 17 0 0
BITMAP
00776048B600
01FFF19FFA00
01FFF19FFA00
01FFF09FFA00
001220010000
379BC1286500
0CFFF04FFFD2
08FFF15FFF50
04FFF33FFE10
01FFF44FFA00
00EFF45FF600
00CFF16FF400
00BFF28FF300
009FF58FF100
004FF7BFD000
000EFFFFA000
0006D7CC4000
ENDCHAR
STARTCHAR yacute
ENCODING 253
SWIDTH 604 0
DWIDTH 10 0
BBX 11 19 0 -1
BITMAP
000000001000
00000003D200
0000005EF800
000008FFD920
000009730000
000000000000
28AA12A52000
08FF75FFB100
006FCCFC0000
001DFFF20000
0009FFC00000
0006FFA00000
0002FF900000
0000EF700000
0000CF600000
0000CF600000
0000CF500000
0000CF200000
000098100000
ENDCHAR
STARTCHAR thorn
ENCODING 254
SWIDTH 498 0
DWIDTH 8 0
BBX 8 17 0 -2
BITMAP
47784000
AFFF3000
8FFF1000
6FFFBB70
4FFFFFF4
2FFFFFF7
2FFFFFF7
0FFFFFF6
0DFF2DF5
0BFF0AF4
08FF5CF1
05FFFFC0
02FF9730
02FF4000
01FF5000
00A84000
00641000
ENDCHAR
STARTCHAR ydieresis
ENCODING 255
SWIDTH 604 0
DWIDTH 10 0
BBX 10 18 0 -1
BITMAP
0386407AA2
07FF90FFF4
08FF90FFF4
07FF90FFF4
0023101100
28AA12A520
08FF75FFB1
006FCCFC00
001DFFF200
0009FFC000
0006FFA000
0002FF9000
0000EF7000
0000CF6000
0000CF6000
0000CF5000
0000CF2000
0000981000
ENDCHAR
STARTCHAR Amacron
ENCODING 256
SWIDTH 494 0
DWIDTH 8 0
BBX 8 19 0 -4
BITMAP
07988850
0CFFFF80
01544430
37888751
09FFFFB1
05FFFF40
04FFFF20
05FFFF10
04FFFE00
04FCEE00
05F8DE00
05F6CE00
05FFFE00
06FFFC00
03F9E900
03E2C700
01613500
00004100
00001000
ENDCHAR
STARTCHAR amacron
ENCODING 257
SWIDTH 479 0
DWIDTH 8 0
BBX 8 17 0 -2
BITMAP
05988870
0AFFFFB0
01454440
5BCDEDE6
1CFFFFB0
05FFFF80
03FFFF70
05FFFF60
04FFFF50
03FEDF50
05FBBF60
06F99F70
06FBCF60
07FFFF40
06FAAF30
06F46F20
01500100
ENDCHAR
STARTCHAR Abreve
ENCODING 258
SWIDTH 494 0
DWIDTH 8 0
BBX 8 22 0 -4
BITMAP
02530000
03F905F9
00EE8CF6
008DFFE1
00032B70
00000010
37888751
09FFFFB1
05FFFF40
04FFFF20
05FFFF10
04FFFE00
04FCEE00
05F8DE00
05F6CE00
05FFFE00
06FFFC00
03F9E900
03E2C700
01613500
00004100
00001000
ENDCHAR
STARTCHAR abreve
ENCODING 259
SWIDTH 479 0
DWIDTH 8 0
BBX 8 20 0 -2
BITMAP
02530000
04F905F9
00FE8CF6
008DFFE1
00032B60
00000010
5BCDEDE6
1CFFFFB0
05FFFF80
03FFFF70
05FFFF60
04FFFF50
03FEDF50
05FBBF60
06F99F70
06FBCF60
07FFFF40
06FAAF30
06F46F20
01500100
ENDCHAR
STARTCHAR Aogonek
ENCODING 260
SWIDTH 494 0
DWIDTH 8 0
BBX 8 19 0 -7
BITMAP
37888751
09FFFFB1
05FFFF40
04FFFF20
05FFFF10
04FFFE00
04FCEE00
05F8DE00
05F6CE00
05FFFE00
06FFFC00
03F9E900
03E2E700
0165F500
0008F300
0009F300
0008FC53
0003FFF8
000039B4
ENDCHAR
STARTCHAR aogonek
ENCODING 261
SWIDTH 479 0
DWIDTH 8 0
BBX 9 18 0 -6
BITMAP
5BCDEDE600
1CFFFFB000
05FFFF8000
03FFFF7000
05FFFF6000
04FFFF5000
03FEDF5000
05FBBF6000
06F99F7000
06FBCF6000
07FFFF4000
06FAAF3000
06F47F2000
01509F0000
0000AE0000
00009F8410
00005FFF40
000005AA20
ENDCHAR
STARTCHAR Cacute
ENCODING 262
SWIDTH 504 0
DWIDTH 8 0
BBX 9 19 0 -2
BITMAP
000001A700
00001CFC20
0004EFEB50
0005941000
0000000000
007CDB3000
0AFFFFE200
4FFFFFF900
8FFFFFFA00
7FFFFFFA00
6FFD9FF900
3FFA1FF700
1FF9010100
0DF8020000
0BFA3FE100
07FEBFC000
03FFFF4000
0027B70000
0003610000
ENDCHAR
STARTCHAR cacute
ENCODING 263
SWIDTH 534 0
DWIDTH 9 0
BBX 9 19 0 -1
BITMAP
0000000100
0000007B00
000009FF40
0001CFFC70
0001A51000
0000000000
006BEC6000
09FFFFF800
5FFFFFFF20
8FFFFFFF10
8FFFFFFF20
5FFF8EFF10
1FFE0AFE00
0EFE024500
0CFD000000
08FF0CD200
04FF8FF100
00DFFFA000
00377B0000
ENDCHAR
STARTCHAR Ccircumflex
ENCODING 264
SWIDTH 504 0
DWIDTH 8 0
BBX 8 21 0 -2
BITMAP
003A9900
00AFFF40
02FFEFC0
08F92EF5
1EB004FC
18100054
00000000
007CDB30
0AFFFFE2
4FFFFFF9
8FFFFFFA
7FFFFFFA
6FFD9FF9
3FFA1FF7
1FF90101
0DF80200
0BFA3FE1
07FEBFC0
03FFFF40
0027B700
00036100
ENDCHAR
STARTCHAR ccircumflex
ENCODING 265
SWIDTH 534 0
DWIDTH 9 0
BBX 9 20 0 -1
BITMAP
00089A3000
003FFFB000
00AFEFF400
02FE29FC00
08F300BF40
0550001700
0000000000
006BEC6000
09FFFFF800
5FFFFFFF20
8FFFFFFF10
8FFFFFFF20
5FFF8EFF10
1FFE0AFE00
0EFE024500
0CFD000000
08FF0CD200
04FF8FF100
00DFFFA000
00377B0000
ENDCHAR
STARTCHAR Cdotaccent
ENCODING 266
SWIDTH 504 0
DWIDTH 8 0
BBX 8 20 0 -2
BITMAP
00468820
00CFFF50
00AFFF50
009FFF60
008FFF50
00341210
007CDB30
0AFFFFE2
4FFFFFF9
8FFFFFFA
7FFFFFFA
6FFD9FF9
3FFA1FF7
1FF90101
0DF80200
0BFA3FE1
07FEBFC0
03FFFF40
0027B700
00036100
ENDCHAR
STARTCHAR cdotaccent
ENCODING 267
SWIDTH 534 0
DWIDTH 9 0
BBX 9 19 0 -1
BITMAP
0035884000
008FFFA000
006FFFA000
004FFFA000
003FFFA000
0015211000
006BEC6000
09FFFFF800
5FFFFFFF20
8FFFFFFF10
8FFFFFFF20
5FFF8EFF10
1FFE0AFE00
0EFE024500
0CFD000000
08FF0CD200
04FF8FF100
00DFFFA000
00377B0000
ENDCHAR
STARTCHAR Ccaron
ENCODING 268
SWIDTH 504 0
DWIDTH 8 0
BBX 8 21 0 -2
BITMAP
2C5002C2
3FE20CF8
0BF96FF2
05FFEF90
00DFFE10
00599600
00000000
007CDB30
0AFFFFE2
4FFFFFF9
8FFFFFFA
7FFFFFFA
6FFD9FF9
3FFA1FF7
1FF90101
0DF80200
0BFA3FE1
07FEBFC0
03FFFF40
0027B700
00036100
ENDCHAR
STARTCHAR ccaron
ENCODING 269
SWIDTH 534 0
DWIDTH 9 0
BBX 9 20 0 -1
BITMAP
06C1008900
0AFA04FF20
03FF3CFA00
00BFEFF200
004FFF9000
00098A2000
0000000000
006BEC6000
09FFFFF800
5FFFFFFF20
8FFFFFFF10
8FFFFFFF20
5FFF8EFF10
1FFE0AFE00
0EFE024500
0CFD000000
08FF0CD200
04FF8FF100
00DFFFA000
00377B0000
ENDCHAR
STARTCHAR Dcaron
ENCODING 270
SWIDTH 522 0
DWIDTH 8 0
BBX 9 22 0 -3
BITMAP
04D2005B10
07FC02EF50
01EF6AFC00
008FEFF500
002FFFC000
0007994000
0000000000
14689A5000
4FFFFFF600
0EFFFFFE00
09FFFFFF10
07FFFFFE00
06FFABFD00
04FF34FA00
03FF23F700
01FF35F400
00EF48F200
00BFEFF100
00CAEFA000
0080A91000
0030620000
0000100000
ENDCHAR
STARTCHAR dcaron
ENCODING 271
SWIDTH 522 0
DWIDTH 8 0
BBX 9 22 0 -3
BITMAP
04D2005B10
07FC02EF50
01EF6AFC00
008FEFF500
002FFFC000
0007994000
0000000000
14689A5000
4FFFFFF600
0EFFFFFE00
09FFFFFF10
07FFFFFE00
06FFABFD00
04FF34FA00
03FF23F700
01FF35F400
00EF48F200
00BFEFF100
00CAEFA000
0080A91000
0030620000
0000100000
ENDCHAR
STARTCHAR Eth.dup2
ENCODING 272
SWIDTH 530 0
DWIDTH 9 0
BBX 9 15 0 -3
BITMAP
0258ABB200
0AFFFFFD20
05FFFFFF80
00FFFFFFB0
00CFFFFFB0
00BFF7EF90
009FD1AF60
4DEFFAAF20
007FC0BD00
004FD0EA00
002FFEF900
002EAFF300
00171D4000
0003160000
0000010000
ENDCHAR
STARTCHAR Emacron
ENCODING 274
SWIDTH 570 0
DWIDTH 9 0
BBX 9 16 0 -1
BITMAP
0199888200
03FFFFF300
0025445100
39ABBB9730
1EFFFFFF20
08FFFFFD00
07FFFFF900
07FFFFF500
05FF77B200
04FF741000
02FFFF4000
01FFDD3000
00EF200000
00CFFF8000
0099FD5000
0034723000
ENDCHAR
STARTCHAR emacron
ENCODING 275
SWIDTH 632 0
DWIDTH 10 0
BBX 10 16 0 -1
BITMAP
0079888500
00CFFFF800
0015444300
158ABBA973
5FFFFFFFF3
0AFFFFFFA0
07FFFFFF50
04FFFFFF40
01FFE9AE10
00EFE00000
00BFFEE300
009FFFF300
007FE45100
005FE98400
002FFFF500
0006476400
ENDCHAR
STARTCHAR Ebreve
ENCODING 276
SWIDTH 570 0
DWIDTH 9 0
BBX 9 19 0 -1
BITMAP
0045100000
009F30BE40
006FC8FF10
001BFFF900
0000479300
0000000100
39ABBB9730
1EFFFFFF20
08FFFFFD00
07FFFFF900
07FFFFF500
05FF77B200
04FF741000
02FFFF4000
01FFDD3000
00EF200000
00CFFF8000
0099FD5000
0034723000
ENDCHAR
STARTCHAR ebreve
ENCODING 277
SWIDTH 632 0
DWIDTH 10 0
BBX 10 19 0 -1
BITMAP
0005500000
000DF00EE1
0009FA9FC0
0004BFFF50
0000049900
0000000100
158ABBA973
5FFFFFFFF3
0AFFFFFFA0
07FFFFFF50
04FFFFFF40
01FFE9AE10
00EFE00000
00BFFEE300
009FFFF300
007FE45100
005FE98400
002FFFF500
0006476400
ENDCHAR
STARTCHAR Edotaccent
ENCODING 278
SWIDTH 570 0
DWIDTH 9 0
BBX 9 19 0 -1
BITMAP
0045883000
009FFF8000
007FFF8000
006FFF9000
005FFF8000
0015221000
39ABBB9730
1EFFFFFF20
08FFFFFD00
07FFFFF900
07FFFFF500
05FF77B200
04FF741000
02FFFF4000
01FFDD3000
00EF200000
00CFFF8000
0099FD5000
0034723000
ENDCHAR
STARTCHAR edotaccent
ENCODING 279
SWIDTH 632 0
DWIDTH 10 0
BBX 10 19 0 -1
BITMAP
0025786000
003FFFE000
001FFFE000
000FFFF000
000EFFE000
0004312000
158ABBA973
5FFFFFFFF3
0AFFFFFFA0
07FFFFFF50
04FFFFFF40
01FFE9AE10
00EFE00000
00BFFEE300
009FFFF300
007FE45100
005FE98400
002FFFF500
0006476400
ENDCHAR
STARTCHAR Eogonek
ENCODING 280
SWIDTH 513 0
DWIDTH 8 0
BBX 9 18 0 -6
BITMAP
39ABBB9730
1EFFFFFF20
08FFFFFD00
07FFFFF900
07FFFFF500
05FF77B200
04FF741000
02FFFF4000
01FFDD3000
00EF200000
00CFFF8000
00BDEF5000
0050CF3000
0000F80000
0000FC0000
0000CFEC20
00003DFF10
0000002200
ENDCHAR
STARTCHAR eogonek
ENCODING 281
SWIDTH 632 0
DWIDTH 10 0
BBX 10 18 0 -6
BITMAP
158ABBA973
5FFFFFFFF3
0AFFFFFFA0
07FFFFFF50
04FFFFFF40
01FFE9AE10
00EFE00000
00BFFEE300
009FFFF300
007FE45100
005FE98400
002FFFF400
00064FB000
00002F7000
00002FA000
00000EFCB0
000005EFE0
0000001330
ENDCHAR
STARTCHAR Ecaron
ENCODING 282
SWIDTH 570 0
DWIDTH 9 0
BBX 9 20 0 -1
BITMAP
04D2005B10
07FC02EF40
01EF5AFC00
009FEFF500
002FFFC000
0007994000
0000000000
39ABBB9730
1EFFFFFF20
08FFFFFD00
07FFFFF900
07FFFFF500
05FF77B200
04FF741000
02FFFF4000
01FFDD3000
00EF200000
00CFFF8000
0099FD5000
0034723000
ENDCHAR
STARTCHAR ecaron
ENCODING 283
SWIDTH 632 0
DWIDTH 10 0
BBX 10 20 0 -1
BITMAP
007C100980
00AF904FF1
004FF3DF90
000CFEFF20
0005FFF900
000098A100
0000000000
158ABBA973
5FFFFFFFF3
0AFFFFFFA0
07FFFFFF50
04FFFFFF40
01FFE9AE10
00EFE00000
00BFFEE300
009FFFF300
007FE45100
005FE98400
002FFFF500
0006476400
ENDCHAR
STARTCHAR Gcircumflex
ENCODING 284
SWIDTH 499 0
DWIDTH 8 0
BBX 8 21 0 -2
BITMAP
0079A400
02FFFD00
08FEFF50
1EE38FD0
7F400AF5
45000071
00000000
016AA500
1DFFFFC1
5FFFFFF6
6FFFFFFA
5FFFFFF8
3FF9CFF6
1FF45FF4
0EF33562
0CF5CFF4
0AF77EF4
07FC7FF2
02FFFFE0
0077BC30
00220100
ENDCHAR
STARTCHAR gcircumflex
ENCODING 285
SWIDTH 546 0
DWIDTH 9 0
BBX 9 21 0 -2
BITMAP
0049980000
00CFFF3000
03FFEFA000
0AF73FF300
2F9005FA00
1700006300
0000000000
018AA94000
1CFFFFF800
6FFFFFFF20
7FFFFFFF60
6FFFFFFF60
4FFD9FFF30
1FFA0DFF10
0DF9147900
09FB5EB800
06FE4EFC00
04FF48FB00
00EFFFFA00
006DEEE500
0001211000
ENDCHAR
STARTCHAR Gbreve
ENCODING 286
SWIDTH 499 0
DWIDTH 8 0
BBX 8 20 0 -2
BITMAP
04510000
0AF30BE3
06FC8FF1
02BFFF80
00047930
00000010
016AA500
1DFFFFC1
5FFFFFF6
6FFFFFFA
5FFFFFF8
3FF9CFF6
1FF45FF4
0EF33562
0CF5CFF4
0AF77EF4
07FC7FF2
02FFFFE0
0077BC30
00220100
ENDCHAR
STARTCHAR gbreve
ENCODING 287
SWIDTH 546 0
DWIDTH 9 0
BBX 9 20 0 -2
BITMAP
0253000000
04F905F900
00FE8CF600
008DFFD100
00042B6000
0000001000
018AA94000
1CFFFFF800
6FFFFFFF20
7FFFFFFF60
6FFFFFFF60
4FFD9FFF30
1FFA0DFF10
0DF9147900
09FB5EB800
06FE4EFC00
04FF48FB00
00EFFFFA00
006DEEE500
0001211000
ENDCHAR
STARTCHAR Gdotaccent
ENCODING 288
SWIDTH 499 0
DWIDTH 8 0
BBX 8 20 0 -2
BITMAP
02578600
03FFFE00
01FFFE00
00FFFF00
00EFFE00
00431200
016AA500
1DFFFFC1
5FFFFFF6
6FFFFFFA
5FFFFFF8
3FF9CFF6
1FF45FF4
0EF33562
0CF5CFF4
0AF77EF4
07FC7FF2
02FFFFE0
0077BC30
00220100
ENDCHAR
STARTCHAR gdotaccent
ENCODING 289
SWIDTH 546 0
DWIDTH 9 0
BBX 9 20 0 -2
BITMAP
0156882000
00DFFF4000
00BFFF4000
00AFFF5000
009FFF4000
0034120000
018AA94000
1CFFFFF800
6FFFFFFF20
7FFFFFFF60
6FFFFFFF60
4FFD9FFF30
1FFA0DFF10
0DF9147900
09FB5EB800
06FE4EFC00
04FF48FB00
00EFFFFA00
006DEEE500
0001211000
ENDCHAR
STARTCHAR Gcommaaccent
ENCODING 290
SWIDTH 499 0
DWIDTH 8 0
BBX 8 22 0 -10
BITMAP
016AA500
1DFFFFC1
5FFFFFF6
6FFFFFFA
5FFFFFF8
3FF9CFF6
1FF45FF4
0EF33562
0CF5CFF4
0AF77EF4
07FC7FF2
02FFFFE0
0077BC30
00220100
00275520
005FFF60
006FFF70
006FFF60
00369F60
00005F40
00008F20
00004600
ENDCHAR
STARTCHAR Hcircumflex
ENCODING 292
SWIDTH 726 0
DWIDTH 12 0
BBX 12 22 0 -3
BITMAP
0000A9A10000
0006FFF80000
000CFEFF2000
004FC1CF9000
00BD201DF100
006300026000
000000000000
1259B36AA961
2EFFD05FFFB0
09FFD03FFF30
07FFC06FFD00
04FFC07FFA00
01FFB07FF600
00DFC6BFF300
00BFFFFFE000
009FE9EFD000
008FC0CFA000
006FD0DF8000
006FD1EF6000
004420AA4000
000000010000
000002200000
ENDCHAR
STARTCHAR hcircumflex
ENCODING 293
SWIDTH 730 0
DWIDTH 12 0
BBX 12 20 0 -1
BITMAP
000099A20000
0005FFF90000
000CFEFF2000
003FD1BFA000
00AE201DF200
006300027000
000000000000
257BD35DDB91
1CFFE02FFFB0
08FFE02FFF40
06FFD05FFE00
03FFD04FFB00
01FFC04FF800
00CFD8BFF300
00AFFFFFF000
008FE7CFF000
008FE0CFB000
006FE0CF9000
005FE0DF7000
003300785000
ENDCHAR
STARTCHAR hbar
ENCODING 295
SWIDTH 704 0
DWIDTH 11 0
BBX 11 13 0 -1
BITMAP
257BD1ADCB60
1CFFC0AFFF50
08FFDADFFD00
06FFFFFFF800
03FFFFFFF500
01FFA3AFF200
00CFC8DFC000
00AFFFFF9000
008FE7DFB000
008FE0CFB000
006FE0CF9000
005FE0DF7000
003300785000
ENDCHAR
STARTCHAR Itilde
ENCODING 296
SWIDTH 401 0
DWIDTH 6 0
BBX 8 18 -1 -1
BITMAP
00000300
4E63BFA0
9FFFFFF5
0BFD7BB1
00300000
06DCCCA0
02DFFF70
005FFF20
002FFF30
003FFF10
003FFD00
002FFC00
000FFC00
000EF900
000CFA00
000AF900
0007B900
00034300
ENDCHAR
STARTCHAR itilde
ENCODING 297
SWIDTH 411 0
DWIDTH 7 0
BBX 8 18 -1 -1
BITMAP
00000300
3D72AFB0
7FFFFFF7
0AFE8AC1
00210000
04ACCB91
01DFFF90
003FFF40
001FFF20
002FFE00
002FFC00
001FFB00
000DFC00
000BF900
0009F800
0008F700
0007D600
00012300
ENDCHAR
STARTCHAR Imacron
ENCODING 298
SWIDTH 401 0
DWIDTH 6 0
BBX 6 16 0 -1
BITMAP
598887
AFFFFB
145444
6DCCCA
2DFFF7
05FFF2
02FFF3
03FFF1
03FFD0
02FFC0
00FFC0
00EF90
00CFA0
00AF90
007B90
003430
ENDCHAR
STARTCHAR imacron
ENCODING 299
SWIDTH 411 0
DWIDTH 7 0
BBX 7 16 0 -1
BITMAP
49887700
8FFFFC00
13543400
4ACCB910
1DFFF900
03FFF400
01FFF200
02FFE000
02FFC000
01FFB000
00DFC000
00BF9000
009F8000
008F7000
007D6000
00123000
ENDCHAR
STARTCHAR Ibreve
ENCODING 300
SWIDTH 401 0
DWIDTH 6 0
BBX 7 19 0 -1
BITMAP
35200000
5F707F70
2FE8DF40
09EFFD00
0043A600
00000100
6DCCCA00
2DFFF700
05FFF200
02FFF300
03FFF100
03FFD000
02FFC000
00FFC000
00EF9000
00CFA000
00AF9000
007B9000
00343000
ENDCHAR
STARTCHAR ibreve
ENCODING 301
SWIDTH 411 0
DWIDTH 7 0
BBX 7 19 0 -1
BITMAP
35200000
6F708F70
2FE7DF40
0AEFFC00
0044A600
00000100
4ACCB910
1DFFF900
03FFF400
01FFF200
02FFE000
02FFC000
01FFB000
00DFC000
00BF9000
009F8000
008F7000
007D6000
00123000
ENDCHAR
STARTCHAR Iogonek
ENCODING 302
SWIDTH 401 0
DWIDTH 6 0
BBX 6 19 0 -7
BITMAP
6DCCCA
2DFFF7
05FFF2
02FFF3
03FFF1
03FFD0
02FFC0
01FFC0
00EF90
00CFA0
00AF90
008F90
00BE30
00EA00
01F700
02FB00
00FFDC
006EFD
000032
ENDCHAR
STARTCHAR iogonek
ENCODING 303
SWIDTH 412 0
DWIDTH 7 0
BBX 7 18 0 -6
BITMAP
4ACCB810
1DFFF900
03FFF400
01FFF200
01FFE000
02FFC000
01FFB000
00DFC000
00BF9000
009F8000
008F7000
008F6000
00BE3000
00EA0000
02F80000
01FD4100
00CFFF00
002AEC00
ENDCHAR
STARTCHAR Idotaccent
ENCODING 304
SWIDTH 401 0
DWIDTH 6 0
BBX 6 19 0 -1
BITMAP
156871
1FFFF1
0EFFF1
0CFFF2
0BFFF1
043120
6DCCCA
2DFFF7
05FFF2
02FFF3
03FFF1
03FFD0
02FFC0
00FFC0
00EF90
00CFA0
00AF90
007B90
003430
ENDCHAR
STARTCHAR dotlessi
ENCODING 305
SWIDTH 411 0
DWIDTH 7 0
BBX 7 13 0 -1
BITMAP
4ACCB910
1DFFF900
03FFF400
01FFF200
02FFE000
02FFC000
01FFB000
00DFC000
00BF9000
009F8000
008F7000
007D6000
00123000
ENDCHAR
STARTCHAR IJ
ENCODING 306
SWIDTH 908 0
DWIDTH 15 0
BBX 14 13 0 -1
BITMAP
6DDCCC1003AA96
2DFFFA0001EFF8
05FFF60000AFF4
02FFF60000AFE0
03FFF40000CFC0
03FFF20000DFB0
02FFF10000DF80
00FFF10000CF60
00DFD01AD0DF40
00BFD00EF1EF20
009FC00DFCFE00
007BC006ECF800
00326000135100
ENDCHAR
STARTCHAR ij
ENCODING 307
SWIDTH 901 0
DWIDTH 14 0
BBX 14 13 0 -1
BITMAP
4ACBC9100ACB74
1DFFFC0008FFF7
03FFF70004FFF5
01FFF50000FFE0
01FFF20000FFF0
02FFF00000FFE0
00FFE00000EFD0
00DFF00010CFB0
00AFD01BD0DFA0
008FC00DF4CF80
007FB00AFDFF50
006DA003DFFF00
00114000026400
ENDCHAR
STARTCHAR Jcircumflex
ENCODING 308
SWIDTH 455 0
DWIDTH 7 0
BBX 9 20 -1 -1
BITMAP
0002A9A000
0008FFF600
001EFEFD00
006FB1DF70
00DC103EE0
0071000450
0000000000
0005AA9500
0003FFF400
0000EFF100
0000DFB000
0000FF9000
0001FF8000
0001FF5000
0010FF3000
3BB1FF1000
2FD2FE0000
1FFCFB0000
08ECE60000
0023310000
ENDCHAR
STARTCHAR jcircumflex
ENCODING 309
SWIDTH 458 0
DWIDTH 7 0
BBX 9 20 -1 -1
BITMAP
0001A9A000
0008FFF700
001EFEFE10
006FB1DF70
00DC102EE0
0072000350
0000000000
000ACA7400
0008FFF700
0004FFF400
0001FFE000
0000FFE000
0000FFD000
0000FFC000
0010DFA000
2BD0DF9000
1FF3DF8000
0DFDFF4000
04EFFF0000
0002640000
ENDCHAR
STARTCHAR Kcommaaccent
ENCODING 310
SWIDTH 580 0
DWIDTH 9 0
BBX 9 21 0 -9
BITMAP
5BB945A740
1DFF69FE30
07FF7CE300
01FF9FA000
00DFFF7000
00CFFF7000
00AFFF8000
008FFF8000
006FFF9000
005FCFC000
003F5AF100
002F77F300
0003324200
0004755000
000BFFF000
000BFFF100
000CFFF000
00056CF000
00000BD000
00000EB000
0000064000
ENDCHAR
STARTCHAR kcommaaccent
ENCODING 311
SWIDTH 636 0
DWIDTH 10 0
BBX 10 21 0 -9
BITMAP
369990ACB5
2DFFC2FFA0
07FFC6FB00
01EFD8F500
00AFF9F300
008FFCB000
007FFF6000
006FFF7000
002FFFC000
001FFBF200
000EC3F800
000CD0DD00
0003306400
0001755200
0004FFF700
0004FFF800
0005FFF800
000278F700
000004F500
000006F300
0000036100
ENDCHAR
STARTCHAR kgreenlandic
ENCODING 312
SWIDTH 636 0
DWIDTH 10 0
BBX 10 13 0 -1
BITMAP
369990ACB5
2DFFC2FFA0
07FFC6FB00
01EFD8F500
00AFF9F300
008FFCB000
007FFF6000
006FFF7000
002FFFC000
001FFBF200
000EC3F800
000CD0DD00
0003306400
ENDCHAR
STARTCHAR Lacute
ENCODING 313
SWIDTH 416 0
DWIDTH 7 0
BBX 9 19 0 -2
BITMAP
000001A700
00001CFC20
0004EFEB50
0005941000
0000000000
7CCBB50000
0EFF900000
0DFF500000
0AFF600000
0AFF400000
08FF300000
05FF500000
05FF500000
02FF400000
01FF822100
00EFFFF000
00BFEFC000
0035789000
0000001000
ENDCHAR
STARTCHAR lacute
ENCODING 314
SWIDTH 438 0
DWIDTH 7 0
BBX 9 19 0 -1
BITMAP
0000000100
0000007B00
000009FE30
0001CFFC70
0002A51000
0000000000
38BBCC4000
0CFFF30000
08FFD00000
06FFD00000
04FFB00000
02FFC00000
00CFB00000
00BFA00000
00AFA00000
009FC32100
007FFFF400
005FDEF000
003516A000
ENDCHAR
STARTCHAR Lcommaaccent
ENCODING 315
SWIDTH 416 0
DWIDTH 7 0
BBX 8 22 0 -10
BITMAP
7CCBB500
0EFF9000
0DFF5000
0AFF6000
0AFF4000
08FF3000
05FF5000
05FF5000
02FF4000
01FF8221
00EFFFF0
00BFEFC0
00357890
00000010
00665300
01FFF900
02FFFA00
03FFFA00
0177FA00
0002F700
0004F500
00027100
ENDCHAR
STARTCHAR lcommaaccent
ENCODING 316
SWIDTH 438 0
DWIDTH 7 0
BBX 8 22 0 -10
BITMAP
38BBCC40
0CFFF300
08FFD000
06FFD000
04FFB000
02FFC000
00CFB000
00BFA000
00AFA000
009FC321
007FFFF4
005FDEF0
003516A0
00000000
00565400
00DFFD00
00DFFE00
00EFFE00
0067DD00
0000DB00
0001F900
00017300
ENDCHAR
STARTCHAR Lcaron
ENCODING 317
SWIDTH 714 0
DWIDTH 11 0
BBX 11 14 0 -2
BITMAP
6CCBB5176540
0EFFA04FFFB0
0DFF505FFFC0
0AFF605FFFC0
0AFF506FFFC0
08FF40134EB0
05FF50000F90
05FF50003F70
02FF50001510
01FF82210000
00EFFFF00000
00BFEFD00000
003477900000
000000100000
ENDCHAR
STARTCHAR lcaron
ENCODING 318
SWIDTH 782 0
DWIDTH 13 0
BBX 12 13 0 -1
BITMAP
38BBCC417644
0CFFF303FFFD
08FFD003FFFE
06FFD004FFFD
04FFB004FFFD
02FFC00134DD
00CFB00000EA
00BFA00001F8
00AFA0000052
009FC3210000
007FFFF40000
005FDEF00000
003516A00000
ENDCHAR
STARTCHAR Ldotaccent
ENCODING 319
SWIDTH 567 0
DWIDTH 9 0
BBX 10 14 0 -2
BITMAP
7CCBB50000
0EFF900000
0DFF524674
0AFF66FFFB
0AFF44FFFB
08FF33FFFC
05FF52FFFC
05FF516433
02FF400000
01FF822100
00EFFFF000
00BFEFC000
0035789000
0000001000
ENDCHAR
STARTCHAR ldot
ENCODING 320
SWIDTH 660 0
DWIDTH 11 0
BBX 11 13 0 -1
BITMAP
38BBCC400000
0CFFF3000000
08FFD0000000
06FFD0257870
04FFB03FFFE0
02FFC01FFFE0
00CFB00EFFF0
00BFA00EFFE0
00AFA0043120
009FC3210000
007FFFF40000
005FDEF00000
003516A00000
ENDCHAR
STARTCHAR Lslash
ENCODING 321
SWIDTH 428 0
DWIDTH 7 0
BBX 8 14 0 -2
BITMAP
4CCBB500
0BFF9000
09FF5000
06FF6390
06FFEFE0
4BFFFFF4
AFFFFD72
4FFF7000
05EF4000
00DF8221
00BFFFF0
008FEFC0
00247880
00000010
ENDCHAR
STARTCHAR lslash
ENCODING 322
SWIDTH 457 0
DWIDTH 7 0
BBX 9 13 0 -1
BITMAP
28BCCC5000
0AFFF50000
06FFF10000
04FFF4B700
02FFFFFA00
18FFFFFE10
8FFFFE7100
2FFFD00000
06AFC00000
007FE42200
005FFFF600
003FEEF200
001714C000
ENDCHAR
STARTCHAR Nacute
ENCODING 323
SWIDTH 610 0
DWIDTH 10 0
BBX 11 21 0 -3
BITMAP
000000001000
00000002D300
0000004EF900
000007FFE920
000008730000
000000000000
289A67A86100
4DFF95FFB000
09FFE4FF3000
08FFF8FF2000
07FFFEFF0000
05FFFFFD0000
03FFFFFB0000
01FFFFF90000
00CFBFF80000
00BF7FF80000
00AF4EF70000
008F4BF40000
007A48C30000
005033300000
002021000000
ENDCHAR
STARTCHAR nacute
ENCODING 324
SWIDTH 664 0
DWIDTH 11 0
BBX 11 20 0 -2
BITMAP
000000000100
000000008A00
0000000AFE30
000002CFFB60
000002A51000
000000000000
6ABCC0999A30
2FFFF29FFB00
0AFFF88FF500
09FFFBAFF100
08FFFFDFD000
07FFFFFFB000
06FFFFFF9000
03FFFFFF7000
00FFBFFF4000
00EF5FFF2000
00CF3EFD0000
00BF2BF80000
008919C50000
000001210000
ENDCHAR
STARTCHAR Ncommaaccent
ENCODING 325
SWIDTH 610 0
DWIDTH 10 0
BBX 10 23 0 -11
BITMAP
289A67A861
4DFF95FFB0
09FFE4FF30
08FFF8FF20
07FFFEFF00
05FFFFFD00
03FFFFFB00
01FFFFF900
00CFBFF800
00BF7FF800
00AF4EF700
008F4BF400
007A48C300
0050333000
0020210000
0001755200
0004FFF700
0004FFF800
0005FFF700
000279F700
000004F500
000007F300
0000036000
ENDCHAR
STARTCHAR ncommaaccent
ENCODING 326
SWIDTH 664 0
DWIDTH 11 0
BBX 11 22 0 -10
BITMAP
6ABCC0999A30
2FFFF29FFB00
0AFFF88FF500
09FFFBAFF100
08FFFFDFD000
07FFFFFFB000
06FFFFFF9000
03FFFFFF7000
00FFBFFF4000
00EF5FFF2000
00CF3EFD0000
00BF2BF80000
008919C50000
000001210000
000056540000
0000DFFD0000
0000DFFE0000
0000EFFE0000
000067DD0000
000000DB0000
000001F90000
000001730000
ENDCHAR
STARTCHAR Ncaron
ENCODING 327
SWIDTH 610 0
DWIDTH 10 0
BBX 10 22 0 -3
BITMAP
02C4003C20
04FE10DF80
00CF97FE10
006FFFF800
000EFFE100
0005996000
0000000000
289A67A861
4DFF95FFB0
09FFE4FF30
08FFF8FF20
07FFFEFF00
05FFFFFD00
03FFFFFB00
01FFFFF900
00CFBFF800
00BF7FF800
00AF4EF700
008F4BF400
007A48C300
0050333000
0020210000
ENDCHAR
STARTCHAR ncaron
ENCODING 328
SWIDTH 664 0
DWIDTH 11 0
BBX 11 21 0 -2
BITMAP
006C10079000
009FA03FF200
002FF4CFA000
000BFEFF3000
0004FFFA0000
000088A20000
000000000000
6ABCC0999A30
2FFFF29FFB00
0AFFF88FF500
09FFFBAFF100
08FFFFDFD000
07FFFFFFB000
06FFFFFF9000
03FFFFFF7000
00FFBFFF4000
00EF5FFF2000
00CF3EFD0000
00BF2BF80000
008919C50000
000001210000
ENDCHAR
STARTCHAR Omacron
ENCODING 332
SWIDTH 504 0
DWIDTH 8 0
BBX 8 17 0 -2
BITMAP
07988850
0DFFFF80
01544420
006BA710
0AFFFFD2
5FFFFFF8
8FFFFFF9
6FFFFFF8
4FFAAFF9
2FF55FF9
0FF43FF8
0DF63FF3
0AF86FF1
08FECFB0
03EFFF50
00298810
00013000
ENDCHAR
STARTCHAR omacron
ENCODING 333
SWIDTH 545 0
DWIDTH 9 0
BBX 9 17 0 -2
BITMAP
0498878000
08FFFFD000
0135434000
006BBB5000
0AFFFFF800
5FFFFFFF40
8FFFFFFF40
6FFFFFFF60
4FFE6FFF50
2FF91FFF30
0FF80EFF10
0CF80EFB00
09FB2FF700
05FFAFF300
01BFFFC000
0004596000
0000001000
ENDCHAR
STARTCHAR Obreve
ENCODING 334
SWIDTH 504 0
DWIDTH 8 0
BBX 8 20 0 -2
BITMAP
04520000
08F509E5
04FD7EF2
00AFFFB0
00045950
00000010
006BA710
0AFFFFD2
5FFFFFF8
8FFFFFF9
6FFFFFF8
4FFAAFF9
2FF55FF9
0FF43FF8
0DF63FF3
0AF86FF1
08FECFB0
03EFFF50
00298810
00013000
ENDCHAR
STARTCHAR obreve
ENCODING 335
SWIDTH 545 0
DWIDTH 9 0
BBX 9 20 0 -2
BITMAP
0352000000
05F707F800
01FE8DF500
009EFFD000
00043A6000
0000001000
006BBB5000
0AFFFFF800
5FFFFFFF40
8FFFFFFF40
6FFFFFFF60
4FFE6FFF50
2FF91FFF30
0FF80EFF10
0CF80EFB00
09FB2FF700
05FFAFF300
01BFFFC000
0004596000
0000001000
ENDCHAR
STARTCHAR Ohungarumlaut
ENCODING 336
SWIDTH 504 0
DWIDTH 8 0
BBX 9 21 0 -2
BITMAP
0061024000
02FC18EB20
08FD1EF900
0EE25FA000
6E30BB0000
3400610000
0000000000
006BA71000
0AFFFFD200
5FFFFFF800
8FFFFFF900
6FFFFFF800
4FFAAFF900
2FF55FF900
0FF43FF800
0DF63FF300
0AF86FF100
08FECFB000
03EFFF5000
0029881000
0001300000
ENDCHAR
STARTCHAR ohungarumlaut
ENCODING 337
SWIDTH 545 0
DWIDTH 9 0
BBX 9 21 0 -2
BITMAP
0043006000
00BE53FC50
03FF49FD10
09F60ED200
1F805E2000
1700340000
0000000000
006BBB5000
0AFFFFF800
5FFFFFFF40
8FFFFFFF40
6FFFFFFF60
4FFE6FFF50
2FF91FFF30
0FF80EFF10
0CF80EFB00
09FB2FF700
05FFAFF300
01BFFFC000
0004596000
0000001000
ENDCHAR
STARTCHAR OE
ENCODING 338
SWIDTH 789 0
DWIDTH 13 0
BBX 12 15 0 -3
BITMAP
006BAABCBA86
0AFFFFFFFFFB
5FFFFFFFFFF4
8FFFFFFFFFE0
6FFFFFFFFFB0
5FFAAFFC5970
2FF55FFC5300
0FF43FFFFC00
0DF63FFFDA00
0AF86FF91000
08FDCFFFFE10
03EFFF9EEC00
002989294500
000572070500
000000020100
ENDCHAR
STARTCHAR oe
ENCODING 339
SWIDTH 778 0
DWIDTH 12 0
BBX 12 14 0 -2
BITMAP
007BBA9AA974
0AFFFFFFFFF7
5FFFFFFFFFE1
8FFFFFFFFFA0
6FFFFFFFFF80
3FFC8FFEAE60
0FF73FFC0010
0CF61FFED700
0AF62FFFF700
07F94FF95300
05FECFFA8500
01BFFFFFFA00
00047A486700
000000000100
ENDCHAR
STARTCHAR Racute
ENCODING 340
SWIDTH 599 0
DWIDTH 10 0
BBX 11 19 0 -1
BITMAP
000000001000
00000004D100
0000006FF600
00000AFFD810
00000A620000
000000000000
268CCBA40000
3EFFFFFFA000
06FFFFFFF300
00EFFFFFF300
00DFFFFFF300
00DFD1BFF100
00AFE0AFE000
007FFDFF9000
004FFFFE3000
002FF6FE1000
001FF2FF3000
000EF1EF3000
0005627A5000
ENDCHAR
STARTCHAR racute
ENCODING 341
SWIDTH 616 0
DWIDTH 10 0
BBX 11 20 0 -2
BITMAP
000000001000
00000002D300
0000004EF900
000007FFE920
000008730000
000000000000
358BCBA50000
3EFFFFFFD300
05FFFFFFF800
00FFFFFFF700
00DFFFFFF400
00BFF2BFF100
00AFF09FD000
009FFDEFB000
006FFFFF5000
006FF9FB0000
006FE4FC0000
005FE3FC0000
004A51AD0000
000000020000
ENDCHAR
STARTCHAR Rcommaaccent
ENCODING 342
SWIDTH 599 0
DWIDTH 10 0
BBX 10 22 0 -10
BITMAP
268CCBA400
3EFFFFFFA0
06FFFFFFF3
00EFFFFFF3
00DFFFFFF3
00DFD1BFF1
00AFE0AFE0
007FFDFF90
004FFFFE30
002FF6FE10
001FF2FF30
000EF1EF30
0005627A50
0000000000
0003755000
0009FFF200
000AFFF300
000AFFF200
00056CF200
000009F000
00000CD000
0000065000
ENDCHAR
STARTCHAR rcommaaccent
ENCODING 343
SWIDTH 616 0
DWIDTH 10 0
BBX 10 22 0 -10
BITMAP
358BCBA500
3EFFFFFFD3
05FFFFFFF8
00FFFFFFF7
00DFFFFFF4
00BFF2BFF1
00AFF09FD0
009FFDEFB0
006FFFFF50
006FF9FB00
006FE4FC00
005FE3FC00
004A51AD00
0000000200
0002755100
0006FFF500
0006FFF600
0007FFF600
00036AF500
000006F300
000009F100
0000046000
ENDCHAR
STARTCHAR Rcaron
ENCODING 344
SWIDTH 599 0
DWIDTH 10 0
BBX 10 20 0 -1
BITMAP
0199000B50
00DF508FD0
007FD3FF50
001EFEFD00
0009FFF500
0002989000
0000000000
268CCBA400
3EFFFFFFA0
06FFFFFFF3
00EFFFFFF3
00DFFFFFF3
00DFD1BFF1
00AFE0AFE0
007FFDFF90
004FFFFE30
002FF6FE10
001FF2FF30
000EF1EF30
0005627A50
ENDCHAR
STARTCHAR rcaron
ENCODING 345
SWIDTH 616 0
DWIDTH 10 0
BBX 10 21 0 -2
BITMAP
01A8001C40
01EF509FC0
008FD3FF50
002FFEFC00
000AFFF400
0003999000
0000000000
358BCBA500
3EFFFFFFD3
05FFFFFFF8
00FFFFFFF7
00DFFFFFF4
00BFF2BFF1
00AFF09FD0
009FFDEFB0
006FFFFF50
006FF9FB00
006FE4FC00
005FE3FC00
004A51AD00
0000000200
ENDCHAR
STARTCHAR Sacute
ENCODING 346
SWIDTH 504 0
DWIDTH 8 0
BBX 10 20 0 -2
BITMAP
0000000100
0000003D20
000004EF80
00008FFD92
0000873000
0000000000
0038C92000
08FFFFE300
1FFFFFFB00
7FFFFFF900
8FFFFFF900
9FFB9FF800
6FFC555500
1DFFFD3000
019EFFE000
05746FF100
1EFCAFD000
07FFFF5000
0076860000
0000100000
ENDCHAR
STARTCHAR sacute
ENCODING 347
SWIDTH 481 0
DWIDTH 8 0
BBX 10 19 0 -1
BITMAP
0000000100
0000004D10
000006FF70
00009FFD81
0000A62000
0000000000
006BB81000
08FFFFC100
3FFFFFF500
7FFFFFF300
8FFFFFF200
8FFACFF100
5FF948B000
1EFFF80000
03CFFF3000
0234CF6000
0CFAAF5000
06FFFD0000
01BA850000
ENDCHAR
STARTCHAR Scircumflex
ENCODING 348
SWIDTH 504 0
DWIDTH 8 0
BBX 8 21 0 -2
BITMAP
001A9A10
007FFF70
00EFEFE1
06FB1DF7
0CC102EE
07200035
00000000
0038C920
08FFFFE3
1FFFFFFB
7FFFFFF9
8FFFFFF9
9FFB9FF8
6FFC5555
1DFFFD30
019EFFE0
05746FF1
1EFCAFD0
07FFFF50
00768600
00001000
ENDCHAR
STARTCHAR scircumflex
ENCODING 349
SWIDTH 481 0
DWIDTH 8 0
BBX 8 20 0 -1
BITMAP
00499800
00BFFF30
03FFEFB0
0AF83FF4
1FA005FB
18000063
00000000
006BB810
08FFFFC1
3FFFFFF5
7FFFFFF3
8FFFFFF2
8FFACFF1
5FF948B0
1EFFF800
03CFFF30
0234CF60
0CFAAF50
06FFFD00
01BA8500
ENDCHAR
STARTCHAR Scedilla
ENCODING 350
SWIDTH 504 0
DWIDTH 8 0
BBX 8 18 0 -6
BITMAP
0038C920
08FFFFE3
1FFFFFFB
7FFFFFF9
8FFFFFF9
9FFB9FF8
6FFC5555
1DFFFD30
019EFFE0
05746FF1
1EFCAFD0
07FFFF50
0078F900
0006C000
0008FE40
00001F30
0006CF30
00023510
ENDCHAR
STARTCHAR scedilla
ENCODING 351
SWIDTH 481 0
DWIDTH 8 0
BBX 8 18 0 -6
BITMAP
006BB810
08FFFFC1
3FFFFFF5
7FFFFFF3
8FFFFFF2
8FFACFF1
5FF948B0
1EFFF800
03CFFF30
0234CF60
0CFAAF50
06FFFD00
01BFF500
000E3000
002FE900
00009A00
002CE900
00034300
ENDCHAR
STARTCHAR Scaron
ENCODING 352
SWIDTH 503 0
DWIDTH 8 0
BBX 8 23 0 -2
BITMAP
01000010
3E8004E4
1FF30DF8
09FC8FE1
03FFFF70
00BFFE10
00366400
00000000
00000000
0039C920
08FFFFE3
1FFFFFFB
7FFFFFF9
8FFFFFF9
9FFB9FF8
6FFC5555
1DFFFD30
019EFFE0
05746FF1
1EFCAFD0
07FFFF50
00768600
00001000
ENDCHAR
STARTCHAR scaron
ENCODING 353
SWIDTH 479 0
DWIDTH 8 0
BBX 8 21 0 -1
BITMAP
4D4005C1
5FD01EF6
0DF7AFD0
07FFFF60
01EFFD00
00688400
00000000
00000000
006BB810
08FFFFC1
3FFFFFF5
7FFFFFF3
8FFFFFF2
8FFACFF0
6FF948B0
1EFFF800
04CFFF30
0234CF60
0DF9BF40
06FFFC00
01BA8400
ENDCHAR
STARTCHAR Tcommaaccent
ENCODING 354
SWIDTH 622 0
DWIDTH 10 0
BBX 10 19 0 -7
BITMAP
279ABBA741
1EFFFFFFF3
0AFFFFFFA0
06FFFFFFB0
05FFFFFF80
04FDFFCC60
0001FF7010
0000FF8000
0001FF6000
0000FF5000
0000DF5000
0000DF6000
0000DE5000
0000BF2000
0000990000
0000BFE100
000003F100
00009DF000
0000344000
ENDCHAR
STARTCHAR tcommaaccent
ENCODING 355
SWIDTH 683 0
DWIDTH 11 0
BBX 11 19 0 -7
BITMAP
169CDDDCA720
4FFFFFFFFE10
0AFFFFFFF700
05FFFFFFF600
02FFFFFFF500
01FCDFFAD300
00209FF20000
00007FF30000
00007FF30000
00005FF20000
00003FF20000
00002FF10000
00002FF10000
00000FF10000
00000E400000
00002EEA0000
0000009B0000
00001BEA0000
000003430000
ENDCHAR
STARTCHAR Tcaron
ENCODING 356
SWIDTH 622 0
DWIDTH 10 0
BBX 10 21 0 -2
BITMAP
03C4003C10
04FE10DF70
00DF88FE10
006FFFF700
000EFFE100
0006996000
0000000000
279ABBA741
1EFFFFFFF3
0AFFFFFFA0
06FFFFFFB0
05FFFFFF80
04FDFFCC60
0001FF7010
0000FF8000
0001FF6000
0000FF5000
0000DF5000
0000DF6000
0000DE5000
0000731000
ENDCHAR
STARTCHAR tcaron
ENCODING 357
SWIDTH 622 0
DWIDTH 10 0
BBX 10 21 0 -2
BITMAP
0199001C50
00EF508FC0
008FD3FF50
001FFEFC00
0009FFF500
0002989000
0000000000
279ABBA741
1EFFFFFFF3
0AFFFFFFA0
06FFFFFFB0
05FFFFFF80
04FDFFCC60
0001FF7010
0000FF8000
0001FF6000
0000FF5000
0000DF5000
0000DF6000
0000DE5000
0000731000
ENDCHAR
STARTCHAR Utilde
ENCODING 360
SWIDTH 637 0
DWIDTH 10 0
BBX 10 18 0 -1
BITMAP
0000003000
04D62BFA00
08FFFFFF60
00BFE7BB10
0002000000
49CC61A862
0CFF72FFF5
0AFF62FFE0
08FF92FFA0
05FF93FF70
03FF83FF30
02FF55FF10
02FF66FF00
01FF87FD00
00DFA9FB00
00AFFFF800
004E8BA200
0004024000
ENDCHAR
STARTCHAR utilde
ENCODING 361
SWIDTH 708 0
DWIDTH 11 0
BBX 12 17 0 0
BITMAP
000000210000
009D15EF5000
01DFFFFFE100
003EFB7D6000
000120000000
379BC1286500
0CFFF04FFFD2
08FFF15FFF50
04FFF33FFE10
01FFF44FFA00
00EFF45FF600
00CFF16FF400
00BFF28FF300
009FF58FF100
004FF7BFD000
000EFFFFA000
0006D7CC4000
ENDCHAR
STARTCHAR Umacron
ENCODING 362
SWIDTH 637 0
DWIDTH 10 0
BBX 10 16 0 -1
BITMAP
0059888700
009FFFFB00
0014544400
49CC61A862
0CFF72FFF5
0AFF62FFE0
08FF92FFA0
05FF93FF70
03FF83FF30
02FF55FF10
02FF66FF00
01FF87FD00
00DFA9FB00
00AFFFF800
004E8BA200
0004024000
ENDCHAR
STARTCHAR umacron
ENCODING 363
SWIDTH 708 0
DWIDTH 11 0
BBX 12 15 0 0
BITMAP
000997883000
001FFFFF5000
000254441000
379BC1286500
0CFFF04FFFD2
08FFF15FFF50
04FFF33FFE10
01FFF44FFA00
00EFF45FF600
00CFF16FF400
00BFF28FF300
009FF58FF100
004FF7BFD000
000EFFFFA000
0006D7CC4000
ENDCHAR
STARTCHAR Ubreve
ENCODING 364
SWIDTH 637 0
DWIDTH 10 0
BBX 10 19 0 -1
BITMAP
0025300000
004F806F80
001FE8DF50
0009EFFD00
000042B600
0000000100
49CC61A862
0CFF72FFF5
0AFF62FFE0
08FF92FFA0
05FF93FF70
03FF83FF30
02FF55FF10
02FF66FF00
01FF87FD00
00DFA9FB00
00AFFFF800
004E8BA200
0004024000
ENDCHAR
STARTCHAR ubreve
ENCODING 365
SWIDTH 708 0
DWIDTH 11 0
BBX 12 18 0 0
BITMAP
000451000000
000AF30BE300
0006FC8FF100
0002BFFF8000
000004793000
000000001000
379BC1286500
0CFFF04FFFD2
08FFF15FFF50
04FFF33FFE10
01FFF44FFA00
00EFF45FF600
00CFF16FF400
00BFF28FF300
009FF58FF100
004FF7BFD000
000EFFFFA000
0006D7CC4000
ENDCHAR
STARTCHAR Uring
ENCODING 366
SWIDTH 637 0
DWIDTH 10 0
BBX 10 19 0 -1
BITMAP
0000020000
0005FFC100
000C94D600
000980C400
0006EFB000
0000150000
49CC61A862
0CFF72FFF5
0AFF62FFE0
08FF92FFA0
05FF93FF70
03FF83FF30
02FF55FF10
02FF66FF00
01FF87FD00
00DFA9FB00
00AFFFF800
004E8BA200
0004024000
ENDCHAR
STARTCHAR uring
ENCODING 367
SWIDTH 708 0
DWIDTH 11 0
BBX 12 18 0 0
BITMAP
000001200000
00008FF90000
0001F66F3000
0000D41E1000
00009EF70000
000002400000
379BC1286500
0CFFF04FFFD2
08FFF15FFF50
04FFF33FFE10
01FFF44FFA00
00EFF45FF600
00CFF16FF400
00BFF28FF300
009FF58FF100
004FF7BFD000
000EFFFFA000
0006D7CC4000
ENDCHAR
STARTCHAR Uhungarumlaut
ENCODING 368
SWIDTH 637 0
DWIDTH 10 0
BBX 10 20 0 -1
BITMAP
0004200600
000DE44FB4
004FF3AFC1
00AF51FD10
02F607D200
0160043000
0000000000
49CC61A862
0CFF72FFF5
0AFF62FFE0
08FF92FFA0
05FF93FF70
03FF83FF30
02FF55FF10
02FF66FF00
01FF87FD00
00DFA9FB00
00AFFFF800
004E8BA200
0004024000
ENDCHAR
STARTCHAR uhungarumlaut
ENCODING 369
SWIDTH 708 0
DWIDTH 11 0
BBX 12 19 0 0
BITMAP
000060042000
0004FB0BEA10
000BFB2FF600
002FC17F7000
009D20D80000
005200600000
000000000000
379BC1286500
0CFFF04FFFD2
08FFF15FFF50
04FFF33FFE10
01FFF44FFA00
00EFF45FF600
00CFF16FF400
00BFF28FF300
009FF58FF100
004FF7BFD000
000EFFFFA000
0006D7CC4000
ENDCHAR
STARTCHAR Uogonek
ENCODING 370
SWIDTH 637 0
DWIDTH 10 0
BBX 10 18 0 -6
BITMAP
49CC61A862
0CFF72FFF5
0AFF62FFE0
08FF92FFA0
05FF93FF70
03FF83FF30
02FF55FF10
02FF66FF00
01FF87FD00
00DFA9FB00
00AFFFF800
004E9FE200
00043FA000
00005F4000
00005F9000
00002FFEB0
000005DFA0
0000000100
ENDCHAR
STARTCHAR uogonek
ENCODING 371
SWIDTH 662 0
DWIDTH 11 0
BBX 12 18 0 -6
BITMAP
379BC1285400
0CFFE04FFFD1
09FFF06FFF50
05FFF24FFE00
02FFF35FF900
00EFF35FF600
00CFF17FF300
00BFF18FF300
009FF49FF100
004FF6CFC000
001FFFFF9000
0007FEEC3000
00007F300000
00009F000000
00009F500000
00006FFE7000
000008EF6000
000000010000
ENDCHAR
STARTCHAR Wcircumflex
ENCODING 372
SWIDTH 777 0
DWIDTH 12 0
BBX 13 20 0 -1
BITMAP
00005997000000
0000DFFF200000
0005FFEF900000
000BF64FF20000
003F8007F90000
00270000720000
00000010000000
015936F26B8300
6FFF69F49FFA20
05FF8CF8DFC000
00BFAFFDFF3000
008FEFFFFB0000
003FFFFFF60000
000AFFFFF40000
0006FFFFF20000
0002FFCFE00000
0000EF8FA00000
0000AC6F500000
00004A6E200000
00000100000000
ENDCHAR
STARTCHAR wcircumflex
ENCODING 373
SWIDTH 704 0
DWIDTH 11 0
BBX 12 19 0 0
BITMAP
000099A20000
0005FFFA0000
000BFEFF2000
003FD1BFA000
00AE201DF200
006300027000
000000000000
15770A537510
5DFF1FA4FFA1
04FF5FD7FF10
00DFAFFCF900
00AFEFFFF300
005FFFFFE000
000DFFFFD000
000AFFFFA000
0006FFCFA000
0002FDAF8000
0000DB8F5000
0000577D4000
ENDCHAR
STARTCHAR Ycircumflex
ENCODING 374
SWIDTH 688 0
DWIDTH 11 0
BBX 12 20 0 -1
BITMAP
0001A9A10000
0007FFF80000
000DFEFE1000
005FC1CF8000
00CD102EE100
007200036000
000000000000
48BC802B6400
06EFF35FFF91
003FFABFF700
0005FFFF9000
0000DFFF2000
00007FFF0000
00002FFD0000
00000CFC0000
000009FB0000
000006FA0000
000005F90000
000004F80000
000002620000
ENDCHAR
STARTCHAR ycircumflex
ENCODING 375
SWIDTH 604 0
DWIDTH 10 0
BBX 10 20 0 -1
BITMAP
00099A3000
003FFFB000
00AFEFF400
02FE2AFB00
08E301CF30
0540001700
0000000000
28AA12A520
08FF75FFB1
006FCCFC00
001DFFF200
0009FFC000
0006FFA000
0002FF9000
0000EF7000
0000CF6000
0000CF6000
0000CF5000
0000CF2000
0000981000
ENDCHAR
STARTCHAR Ydieresis
ENCODING 376
SWIDTH 688 0
DWIDTH 11 0
BBX 12 18 0 -1
BITMAP
01876059A500
02FFE0AFF900
03FFE0AFF900
02FFE0AFF900
001320110000
48BC802B6400
06EFF35FFF91
003FFABFF700
0005FFFF9000
0000DFFF2000
00007FFF0000
00002FFD0000
00000CFC0000
000009FB0000
000006FA0000
000005F90000
000004F80000
000002620000
ENDCHAR
STARTCHAR Zacute
ENCODING 377
SWIDTH 695 0
DWIDTH 11 0
BBX 12 19 0 -1
BITMAP
000000000100
000000003D20
00000004EF80
0000007FFD92
000000873000
000000000000
16ACCCCA7400
3FFFFFFFFFA0
0BFFFFFFFE10
05FFFFFFF800
01FFFFFFF200
00EB7FFF7000
00307FF60000
0000DF900000
0002FE100000
0008F9300000
002FFFF90000
004EEFF30000
000212500000
ENDCHAR
STARTCHAR zacute
ENCODING 378
SWIDTH 622 0
DWIDTH 10 0
BBX 11 19 0 -1
BITMAP
000000001000
00000002D400
0000003EFA00
000006FFEA30
000007730000
000000000000
27BDCDC97100
3FFFFFFFF300
0AFFFFFFB000
04FFFFFF6000
00FFFFFF3000
00CC9FFA0000
00309FC00000
0000EF400000
0003FC000000
0007F6000000
000CFFF40000
000FFFF30000
000525910000
ENDCHAR
STARTCHAR Zdotaccent
ENCODING 379
SWIDTH 695 0
DWIDTH 11 0
BBX 11 19 0 -1
BITMAP
000257860000
0004FFFD0000
0002FFFD0000
0001FFFE0000
0000FFFD0000
000053120000
16ACCCCA7400
3FFFFFFFFFA0
0BFFFFFFFE10
05FFFFFFF800
01FFFFFFF200
00EB7FFF7000
00307FF60000
0000DF900000
0002FE100000
0008F9300000
002FFFF90000
004EEFF30000
000212500000
ENDCHAR
STARTCHAR zdotaccent
ENCODING 380
SWIDTH 622 0
DWIDTH 10 0
BBX 10 19 0 -1
BITMAP
0025787000
003FFFE000
001FFFE000
000FFFF000
000EFFE000
0004312000
27BDCDC971
3FFFFFFFF3
0AFFFFFFB0
04FFFFFF60
00FFFFFF30
00CC9FFA00
00309FC000
0000EF4000
0003FC0000
0007F60000
000CFFF400
000FFFF300
0005259100
ENDCHAR
STARTCHAR Zcaron
ENCODING 381
SWIDTH 693 0
DWIDTH 11 0
BBX 11 22 0 -1
BITMAP
000100001000
005E3009B000
004FD04FE100
000DF7DF8000
0007FFFF1000
0001FFF90000
000055620000
000000000000
000000000000
16ACCCCA7400
4FFFFFFFFF90
0CFFFFFFFE10
05FFFFFFF800
01FFFFFFF200
00EB7FFF7000
00307FF60000
0000DF900000
0002FE100000
0008F9300000
002FFFF80000
004EEFF30000
000212500000
ENDCHAR
STARTCHAR zcaron
ENCODING 382
SWIDTH 621 0
DWIDTH 10 0
BBX 10 22 0 -1
BITMAP
0020000200
04E7006E30
02FF22EF40
00AFABFC00
004FFFF400
000CFFC000
0003453000
0000000000
0000000000
27BDCDC971
3FFFFFFFF3
0AFFFFFFA0
03FFFFFF50
00FFFFFF30
00CC9FFA00
00309FC000
0000EF4000
0003FC0000
0007F60000
000DFFF400
001FFFF300
0005259100
ENDCHAR
STARTCHAR DZ
ENCODING 497
SWIDTH 194 0
DWIDTH 3 0
BBX 1 1 0 0
BITMAP
00
ENDCHAR
STARTCHAR Dz
ENCODING 498
SWIDTH 194 0
DWIDTH 3 0
BBX 1 1 0 0
BITMAP
00
ENDCHAR
STARTCHAR dotlessj
ENCODING 567
SWIDTH 458 0
DWIDTH 7 0
BBX 8 13 -1 -1
BITMAP
000ACA74
0008FFF7
0004FFF4
0001FFE0
0000FFE0
0000FFD0
0000FFC0
0010DFA0
2BD0DF90
1FF3DF80
0DFDFF40
04EFFF00
00026400
ENDCHAR
STARTCHAR circumflex
ENCODING 710
SWIDTH 528 0
DWIDTH 8 0
BBX 8 6 0 11
BITMAP
00499800
00BFFF30
03FFEFB0
0AF73FF3
2F9005FA
17000063
ENDCHAR
STARTCHAR caron
ENCODING 711
SWIDTH 486 0
DWIDTH 8 0
BBX 8 6 0 11
BITMAP
4D3005B1
6FD01EF5
1EF6AFD0
08FEFF50
02FFFC00
00799400
ENDCHAR
STARTCHAR breve
ENCODING 728
SWIDTH 464 0
DWIDTH 7 0
BBX 7 6 0 -2
BITMAP
25300000
3FA04FA0
0EF8CF70
07DFFE10
0032B700
00000100
ENDCHAR
STARTCHAR dotaccent
ENCODING 729
SWIDTH 388 0
DWIDTH 6 0
BBX 6 6 0 3
BITMAP
156871
0EFFF2
0DFFF3
0BFFF3
0AFFF2
034120
ENDCHAR
STARTCHAR ring
ENCODING 730
SWIDTH 370 0
DWIDTH 6 0
BBX 6 6 0 4
BITMAP
001100
0AFF80
2F57F1
0E23D0
0AFF50
003300
ENDCHAR
STARTCHAR ogonek
ENCODING 731
SWIDTH 360 0
DWIDTH 6 0
BBX 6 7 0 -1
BITMAP
056000
0EA000
1F8000
1FC100
0DFFE1
03CFE0
000110
ENDCHAR
STARTCHAR tilde
ENCODING 732
SWIDTH 535 0
DWIDTH 9 0
BBX 8 5 0 -2
BITMAP
00000210
1BB17EE3
3FFFFFFC
05FFA8E4
00120000
ENDCHAR
STARTCHAR hungarumlaut
ENCODING 733
SWIDTH 554 0
DWIDTH 9 0
BBX 9 6 0 11
BITMAP
0042006000
00DE35FB40
04FE3AFC10
0AF51FD100
3F607D2000
1600430000
ENDCHAR
STARTCHAR dotaccentcmb
ENCODING 775
SWIDTH 396 0
DWIDTH 6 0
BBX 6 5 0 6
BITMAP
1BCFE3
0DFFF3
0BFFF4
0AFFF4
09CAA2
ENDCHAR
STARTCHAR uni030F
ENCODING 783
SWIDTH 549 0
DWIDTH 9 0
BBX 9 6 0 11
BITMAP
0060033000
6CF25FA000
2DF76FF200
03ED08F800
003E409E10
0005200700
ENDCHAR
STARTCHAR uni0311
ENCODING 785
SWIDTH 490 0
DWIDTH 8 0
BBX 7 5 0 5
BITMAP
02ADD800
08FFFF50
0CF56FB0
1FC00CC0
01100000
ENDCHAR
STARTCHAR uni0326
ENCODING 806
SWIDTH 360 0
DWIDTH 6 0
BBX 4 8 1 -2
BITMAP
5654
DFFD
EFFE
FFFD
67ED
00DB
01F8
0173
ENDCHAR
STARTCHAR endash
ENCODING 8211
SWIDTH 478 0
DWIDTH 8 0
BBX 7 4 0 4
BITMAP
0BB9A970
1FFFFF70
2FFFFF60
02544420
ENDCHAR
STARTCHAR emdash
ENCODING 8212
SWIDTH 567 0
DWIDTH 9 0
BBX 9 4 0 4
BITMAP
0BB99A9A20
1FFFFFFD00
2FFFFFFC00
0254253400
ENDCHAR
STARTCHAR quoteleft
ENCODING 8216
SWIDTH 373 0
DWIDTH 6 0
BBX 6 8 0 4
BITMAP
07B000
0BD000
0EB000
0FEAA1
1FFFF2
1FFFF1
1FFFF1
0EDFF0
ENDCHAR
STARTCHAR quoteright
ENCODING 8217
SWIDTH 369 0
DWIDTH 6 0
BBX 5 9 0 3
BITMAP
1AA880
3FFFD0
3FFFE0
4FFFE0
3EFFD0
000CC0
000EA0
001F80
000100
ENDCHAR
STARTCHAR quotesinglbase
ENCODING 8218
SWIDTH 369 0
DWIDTH 6 0
BBX 5 9 0 3
BITMAP
1AA880
3FFFD0
3FFFE0
4FFFE0
3EFFD0
000CC0
000EA0
001F80
000100
ENDCHAR
STARTCHAR quotedblleft
ENCODING 8220
SWIDTH 687 0
DWIDTH 11 0
BBX 11 8 0 4
BITMAP
07B0006B0000
0BD000BE0000
0EB000DB0000
0FEAA1FEAA10
1FFFF2FFFF20
1FFFF2FFFF20
1FFFF1FFFF10
0EDFF0DDFF10
ENDCHAR
STARTCHAR quotedblright
ENCODING 8221
SWIDTH 677 0
DWIDTH 11 0
BBX 10 9 0 3
BITMAP
2BBA60AA87
3FFFA0FFFC
3FFFA1FFFD
4FFFA1FFFC
4FFFA1EFFC
001D9000DB
000F7001F9
002F5002F7
0001000010
ENDCHAR
STARTCHAR quotedblbase
ENCODING 8222
SWIDTH 697 0
DWIDTH 11 0
BBX 11 8 0 -5
BITMAP
2EDBB0AECC30
2FFFE0BFFF50
3FFFE0CFFF50
4FFFE0DFFF50
2BCEE0ABEF50
000CC0006F30
000EA0009F10
001D60009B00
ENDCHAR
STARTCHAR ellipsis
ENCODING 8230
SWIDTH 1462 0
DWIDTH 23 0
BBX 23 6 0 0
BITMAP
167970000268950000369940
0FFFD00002FFF900005FFF80
0EFFD00000FFF900004FFF80
0CFFD00000EFFA00003FFF90
0CFFC00000DFF900002FFF80
032010000032010000131100
ENDCHAR
STARTCHAR guilsinglleft
ENCODING 8249
SWIDTH 459 0
DWIDTH 7 0
BBX 7 9 0 1
BITMAP
006CCB80
00AFFD20
04FFF300
3EFF9000
6FFF2000
0EFF8000
03EFE300
005FFE30
0005ADA0
ENDCHAR
STARTCHAR guilsinglright
ENCODING 8250
SWIDTH 432 0
DWIDTH 7 0
BBX 7 9 0 1
BITMAP
4CCD5000
0BFFA000
01EFF400
005FFE20
001DFF50
005FFE10
02EFF200
3EFF8000
3AA90000
ENDCHAR
STARTCHAR fraction
ENCODING 8260
SWIDTH 371 0
DWIDTH 6 0
BBX 6 13 0 -1
BITMAP
7BCCA6
4EFFF5
07FFE0
05FFD0
06FFA0
06FF80
05FF60
03FF80
00FF50
00DF30
00CF30
00AE20
001410
ENDCHAR
STARTCHAR Euro
ENCODING 8364
SWIDTH 587 0
DWIDTH 9 0
BBX 9 16 0 -4
BITMAP
0007BDB300
009FFFFE30
02FFFFFFA0
04FFFFFFA0
04FFFFFF90
02FFE9FF90
56FFD3FF80
58EFB11110
6BEFD42000
22AFB4FE10
005FEAFC00
002FFFF500
0001897000
0000651000
0000350000
0000020000
ENDCHAR
STARTCHAR trademark
ENCODING 8482
SWIDTH 785 0
DWIDTH 13 0
BBX 13 10 0 3
BITMAP
00000000111000
7CDDB3AE8AFA10
5FFFF27FCDF800
3FFFF15FFFF600
18DD703FFFF500
00AD001FDDF500
00AC000EBAF300
009C000C88E100
009A0003002000
00100000000000
ENDCHAR
STARTCHAR minus
ENCODING 8722
SWIDTH 478 0
DWIDTH 8 0
BBX 7 4 0 4
BITMAP
0BB9A970
1FFFFF70
2FFFFF50
02544420
ENDCHAR
STARTCHAR commaaccent
ENCODING 63171
SWIDTH 360 0
DWIDTH 6 0
BBX 5 9 0 -3
BITMAP
166440
2FFFD0
3FFFE0
3FFFE0
4FFFE0
034DD0
000EB0
001F90
000520
ENDCHAR
STARTCHAR .notdef
ENCODING -1
SWIDTH 365 0
DWIDTH 6 0
BBX 5 11 0 0
BITMAP
588870
710080
710080
710080
710080
710080
710080
710080
710080
710080
7888A0
ENDCHAR
STARTCHAR .null
ENCODING -1
SWIDTH 0 0
DWIDTH 0 0
BBX 1 1 0 0
BITMAP
00
ENDCHAR
STARTCHAR nonmarkingreturn
ENCODING -1
SWIDTH 333 0
DWIDTH 5 0
BBX 1 1 0 0
BITMAP
00
ENDCHAR
ENDFONT
